<?xml version="1.0" encoding="utf-8"?>
<!-- Generator: Adobe Illustrator 15.0.0, SVG Export Plug-In . SVG Version: 6.00 Build 0)  -->
<!DOCTYPE svg PUBLIC "-//W3C//DTD SVG 1.1//EN" "http://www.w3.org/Graphics/SVG/1.1/DTD/svg11.dtd">
<svg version="1.1" id="Calque_1" xmlns="http://www.w3.org/2000/svg" xmlns:xlink="http://www.w3.org/1999/xlink" x="0px" y="0px"
	 width="216px" height="18px" viewBox="-30 -2.5 216 18" enable-background="new -30 -2.5 216 18" xml:space="preserve">
<circle fill="#EEEBE8" cx="-21" cy="6.5" r="9"/>
<path fill="#808090" d="M-16.845,6.5c0,2.289-1.859,4.152-4.155,4.152s-4.155-1.863-4.155-4.152c0-2.295,1.859-4.155,4.155-4.155
	S-16.845,4.205-16.845,6.5z"/>
<circle fill="#EEEBE8" cx="-3" cy="6.5" r="9"/>
<circle opacity="0.25" fill="#2D2D2D" enable-background="new    " cx="15" cy="6.5" r="9"/>
<circle fill="#EEEBE8" cx="33" cy="6.5" r="9"/>
<circle opacity="0.25" fill="#2D2D2D" enable-background="new    " cx="51" cy="6.5" r="9"/>
<circle opacity="0.25" fill="#2D2D2D" enable-background="new    " cx="69" cy="6.5" r="9"/>
<circle opacity="0.25" fill="#2D2D2D" enable-background="new    " cx="87" cy="6.5" r="9"/>
<circle opacity="0.25" fill="#2D2D2D" enable-background="new    " cx="105" cy="6.5" r="9"/>
<circle fill="#DFDFDF" cx="51" cy="6.5" r="7"/>
<circle fill="#DFDFDF" cx="69" cy="6.5" r="7"/>
<circle fill="#DFDFDF" cx="105" cy="6.5" r="7"/>
<circle fill="#EEEBE8" cx="123" cy="6.5" r="9"/>
<circle fill="#EEEBE8" cx="141" cy="6.5" r="9"/>
<circle opacity="0.25" fill="#2D2D2D" enable-background="new    " cx="159" cy="6.5" r="9"/>
<circle fill="#EEEBE8" cx="177" cy="6.5" r="9"/>
<path fill="#808090" d="M1.155,6.5c0,2.289-1.859,4.152-4.155,4.152S-7.155,8.789-7.155,6.5c0-2.295,1.859-4.155,4.155-4.155
	S1.155,4.205,1.155,6.5z"/>
<path fill="#FFFFFF" d="M19.155,6.5c0,2.289-1.859,4.152-4.155,4.152S10.845,8.789,10.845,6.5c0-2.295,1.859-4.155,4.155-4.155
	S19.155,4.205,19.155,6.5z"/>
<path fill="#808090" d="M37.155,6.5c0,2.289-1.859,4.152-4.155,4.152S28.845,8.789,28.845,6.5c0-2.295,1.859-4.155,4.155-4.155
	S37.155,4.205,37.155,6.5z"/>
<path fill="#808090" d="M127.152,6.5c0,2.289-1.855,4.152-4.152,4.152s-4.152-1.863-4.152-4.152c0-2.295,1.855-4.155,4.152-4.155
	S127.152,4.205,127.152,6.5z"/>
<path fill="#808090" d="M145.152,6.5c0,2.289-1.855,4.152-4.152,4.152s-4.152-1.863-4.152-4.152c0-2.295,1.855-4.155,4.152-4.155
	S145.152,4.205,145.152,6.5z"/>
<path fill="#808090" d="M181.152,6.5c0,2.289-1.855,4.152-4.152,4.152s-4.152-1.863-4.152-4.152c0-2.295,1.855-4.155,4.152-4.155
	S181.152,4.205,181.152,6.5z"/>
</svg>
