<svg xmlns="http://www.w3.org/2000/svg" xmlns:xlink="http://www.w3.org/1999/xlink" viewBox="0 0 2159 96"><style>.st0{fill:#2d2d2d}.st1{stroke:#2d2d2d;stroke-miterlimit:10}.st1,.st2{fill:none}.st98{opacity:.2}.st106{fill:none;stroke:#2d2d2d;stroke-miterlimit:10;opacity:.9;enable-background:new}.st107{opacity:.7}.st2861{clip-path:url(#SVGID_1832_)}.st2890{fill:#e7c146}.st2890,.st2891,.st2892,.st2893{clip-path:url(#SVGID_1856_)}.st2891{fill:#53a93f}.st2892{fill:#83beec}.st2893{fill:#8959ab}.st2895{fill:#e7c146}.st2895,.st2896,.st2897,.st2898{clip-path:url(#SVGID_1858_)}.st2896{fill:#53a93f}.st2897{fill:#83beec}.st2898{fill:#8959ab}.st2900,.st2910,.st2912{clip-path:url(#SVGID_1862_)}.st2910,.st2912{fill:none;stroke:#83beec;stroke-miterlimit:10}.st2912{stroke:#e7c146}.st2930{fill:#777}.st2931{font-family:&apos;TimesNewRomanPSMT&apos;}.st2932{font-size:27.3165px}.st2965{fill:#8959ab}.st2965,.st2966,.st2967,.st2968{clip-path:url(#SVGID_1928_)}.st2966{fill:#e7c146}.st2967{fill:#83beec}.st2968{fill:#53a93f}.st2969{fill:#8959ab}.st2969,.st2970,.st2971,.st2972{clip-path:url(#SVGID_1924_)}.st2970{fill:#e7c146}.st2971{fill:#83beec}.st2972{fill:#53a93f}.st2996{clip-path:url(#SVGID_1948_)}.st3002{fill:#8959ab}.st3002,.st3003,.st3004,.st3005{clip-path:url(#SVGID_1948_)}.st3003{fill:#83beec}.st3004{fill:#53a93f}.st3005{fill:#e7c146}.st3059{fill:#8959ab}.st3059,.st3060,.st3061{clip-path:url(#SVGID_1996_)}.st3060{fill:#83beec}.st3061,.st3063{fill:#e7c146}.st3063{clip-path:url(#SVGID_1994_)}.st3107{fill:#8959ab}.st3107,.st3108,.st3109{clip-path:url(#SVGID_2028_)}.st3108{fill:#83beec}.st3109{fill:#53a93f}.st3111{fill:#8959ab}.st3111,.st3112,.st3113{clip-path:url(#SVGID_2026_)}.st3112{fill:#83beec}.st3113{fill:#53a93f}.st3135{fill:#ededed}.st3136{fill:none;stroke:#ededed;stroke-miterlimit:10}</style><g id="Sombre"><path class="st0" d="M8 49c3.9 0 7 3.1 7 7s-3.1 7-7 7-7-3.1-7-7 3.1-7 7-7m0-1c-4.4 0-8 3.6-8 8s3.6 8 8 8 8-3.6 8-8-3.6-8-8-8z"/><path class="st1" d="M1 63l14-14"/><path class="st2" d="M16 48h16v16H16z"/><path class="st0" d="M25 55v3h-3v-3h3m0-1h-3c-.6 0-1 .4-1 1v3c0 .6.4 1 1 1h3c.6 0 1-.4 1-1v-3c0-.6-.4-1-1-1zm-9 2h4v1h-4zm11 0h4v1h-4zm-4-7h1v4h-1zm0 11h1v4h-1z"/><path class="st2" d="M32 48h16v16H32z"/><path class="st0" d="M41 59.5V61h-3v-3h3m0-1h-3c-.6 0-1 .4-1 1v3c0 .6.4 1 1 1h3c.6 0 1-.4 1-1v-3c0-.6-.4-1-1-1zm-9-5h4v1h-4zm11 0h4v1h-4zm-4-4h1v2h-1zm0 14h1v2h-1zm2-9.5V54h-3v-3h3m0-1h-3c-.6 0-1 .4-1 1v3c0 .6.4 1 1 1h3c.6 0 1-.4 1-1v-3c0-.6-.4-1-1-1zm-2 5h1v2h-1zm-7 4h4v1h-4zm11 0h4v1h-4z"/><path class="st2" d="M48 48h16v16H48z"/><path class="st0" d="M54 56h10v1H54z"/><path class="st0" d="M56 54h1v10h-1zm-7.3 8l-.7-.7 4.3-4.3.7.7z"/><path class="st0" d="M52.3 62L48 57.7l.7-.7 4.3 4.3zm6.8-11L57 48.7l.7-.7 2.2 2.3z"/><path class="st0" d="M59.9 51l-.8-.7 2.2-2.3.7.7z"/><path class="st0" d="M60 53h-1v-3h1zm2 2h1v1h-1zm-2 0h1v1h-1zm-2 0h1v1h-1zm-3 3h1v1h-1zm0 2h1v1h-1zm0 2h1v1h-1z"/><path class="st2" d="M64 48h16v16H64z"/><path class="st0" d="M73.7 64l-.7-.7 4.3-4.3.7.7z"/><path class="st0" d="M77.3 64L73 59.7l.7-.7 4.3 4.3zM66.1 53L64 50.7l.7-.7 2.2 2.3z"/><path class="st0" d="M66.9 53l-.8-.7 2.2-2.3.7.7z"/><path class="st0" d="M67 55h-1v-3h1zm5-7h1v10h-1z"/><path class="st0" d="M70 55h10v1H70zm1-6h1v1h-1zm0 2h1v1h-1zm0 2h1v1h-1zm3 3h1v1h-1zm2 0h1v1h-1zm2 0h1v1h-1z"/><path class="st2" d="M911 48h48v48h-48z"/><g class="st98"><path class="st0" d="M927 89l5-9 10.9 1.2L947 75l8 9 3-1V67l-4 4-13 4-10.2-1.4L917 79l-5-2v15l7-6z"/><path class="st0" d="M955 86l-8-9-4 6-11-1-5 9-8-3-7 6v1h46v-9.9zm-24-14l10 1 13-4 4-4v-1l-4 3-8-2-7 2-14-7-7 9-6 1.3V75l5 2z"/><path class="st0" d="M925 58l14 7 7-2 8 2 4-3v-8.8l-8-4.2-6 5-7 4-10-2-8-5-7 6v12l6-2z"/></g><path class="st0" d="M947.1 78.6l7.2 8 .4.5.6-.2 1.7-.5V94h-43.7l5.7-4.9 7.5 2.8.8.3.4-.8 4.7-8.5 10.4 1h.6l.3-.5 3.4-4.8M947 77l-4 6-11-1-5 9-8-3-7 6v1h46v-9.9l-3 .9-8-9z"/><path class="st0" d="M957 69v13.3l-1.7.6-7.6-8.5-.3-.3 6.8-2.1.2-.1.2-.2 2.3-2.3m-10.7 5.1l-3.8 5.7-10.3-1.2-.7-.1-.3.6-4.6 8.2-7.2-2.7-.5-.2-.5.4-5.3 4.6V78.5l3.6 1.5.4.2.4-.2 13.6-5.3 9.9 1.4h.2l.2-.1 4.9-1.5M958 67l-4 4-13 4-10.2-1.4L917 79l-5-2v15l7-6 8 3 5-9 10.9 1.2L947 75l8 9 3-1V67z"/><path class="st0" d="M925.3 61.3l13.3 6.6.4.2.4-.1 6.7-2 7.6 1.9-.2.2-12.6 3.9-9.8-1h-.2l-.2.1-13.7 4.8-4-1.6v-3.2l5.2-1.2.4-.1.2-.3 6.5-8.2M925 60l-7 9-6 1.3V75l5 2 14-5 10 1 13-4 4-4v-1l-4 3-8-2-7 2-14-7z"/><path class="st0" d="M950.1 50.2l6.9 3.6v7.7l-3.2 2.4-7.5-1.9h-.3l-.2.1-6.7 1.8-13.6-6.8-.7-.4-.5.7-6.8 8.8-4.4 1.5V57.5l5.8-4.9 7 4.4.1.1h.2l9.5 1.9.4.1.3-.2 6.6-3.8h1.8l5.5-4.6M950 49l-6 5-7 4-10-2-8-5-7 6v12l6-2 7-9 14 7 7-2 8 2 4-3v-8.8l-8-4.2z"/><path class="st2" d="M863 48h48v48h-48z"/><g class="st98"><defs><path id="SVGID_171_" d="M864 71V49h46v25-16l-4 1-8 2-5 6-10.2-1.4L871 78z"/></defs><clipPath id="SVGID_172_"><use xlink:href="#SVGID_171_" overflow="visible"/></clipPath><g clip-path="url(#SVGID_172_)"><path class="st0" d="M910 95V54l-8-5-6 5-7 4-10-2-8-5-7 6v38z"/><path d="M863 72v23h47V57l-14 4-5 6-10.2-1.4L869 78z"/></g><defs><path id="SVGID_173_" d="M910 78l-6 1-7-7-15 4-8-6-10 12V49h46z"/></defs><clipPath id="SVGID_174_"><use xlink:href="#SVGID_173_" overflow="visible"/></clipPath><g clip-path="url(#SVGID_174_)"><path class="st0" d="M864 71v24h46V58l-4 1-8 2-5 6-10.2-1.4L871 78z"/></g><defs><path id="SVGID_175_" d="M907 86l-8-9-4 6-9-1-7 7-15-4V49h46v45.9-9.8z"/></defs><clipPath id="SVGID_176_"><use xlink:href="#SVGID_175_" overflow="visible"/></clipPath><g clip-path="url(#SVGID_176_)"><path class="st0" d="M910 78l-6 1-7-7-15 4-8-6-10 12v13h46z"/><path d="M905 86l-8-9-4 6-9-1-7 7-14-4v10h45v-9.9z"/></g><path class="st0" d="M907 86l-8-9-4 6-9-1-7 7-15-4v10h46v-9.9z"/></g><defs><path id="SVGID_177_" d="M863 70V48h47v26-16l-4 1-8 2-5 6-10.2-1.4L871 78z"/></defs><clipPath id="SVGID_178_"><use xlink:href="#SVGID_177_" overflow="visible"/></clipPath><g clip-path="url(#SVGID_178_)"><path class="st0" d="M902.1 50.2l6.9 4.3V94h-44V57.5l5.8-4.9 7 4.4.2.1h.2l9.5 1.9.4.1.3-.2 6.6-3.8h1.8l5.4-4.5M902 49l-6 5-7 4-10-2-8-5-7 6v38h46V54l-8-5z"/></g><defs><path id="SVGID_179_" d="M910 78l-6 1-7-7-15 4-8-5.3L864 82V58h46z"/></defs><clipPath id="SVGID_180_"><use xlink:href="#SVGID_179_" overflow="visible"/></clipPath><g clip-path="url(#SVGID_180_)"><path class="st0" d="M909 59v35h-44V73.4l5.3 5.3.7.7.7-.7 11.5-12 9.6 1.3.5.1.4-.4 4.8-5.8 7.7-1.9 2.8-.7m1-1.3l-4 1-8 2-5 6-10.2-1.4L871 78l-7-7v24h46V58z"/></g><defs><path id="SVGID_181_" d="M907 86l-8-9-4 6-9-1-7 7-15-4V69h46v16.1z"/></defs><clipPath id="SVGID_182_"><use xlink:href="#SVGID_181_" overflow="visible"/></clipPath><g clip-path="url(#SVGID_182_)"><path class="st0" d="M874.2 71.4l7.2 5.4.4.3.5-.1 14.4-3.9 6.6 6.6.4.4.5-.1 4.8-.8V94h-44V82.4l9.2-11M874 70l-10 12v13h46V78l-6 1-7-7-15 4-8-6z"/></g><path class="st0" d="M899.1 78.6l7.1 8 .4.5.6-.2 1.7-.5V94h-44v-7.7l13.7 3.7.6.1.4-.4 6.7-6.7 8.5.9.6.1.3-.5 3.4-4.9M899 77l-4 6-9-1-7 7-15-4v10h46v-9.9l-3 .9-8-9z"/><path class="st2" d="M959 48h48v48h-48z"/><path d="M965 87V49m-5 33h6m4-26h-5m12 39V54m-5 7h5m0 4h5m7 12V49m5 3h-5m-5 21h5m17-21h-5v33m-5-9h5" stroke-width="2" fill="none" stroke="#2d2d2d" stroke-miterlimit="10"/><path class="st2" d="M1007 48h48v48h-48z"/><g class="st98"><path class="st0" d="M1022 88c0-3.9-3.1-7-7-7s-7 3.1-7 7 3.1 7 7 7 7-3.1 7-7z"/><circle class="st0" cx="1018.5" cy="61.5" r="7.5"/><circle class="st0" cx="1030" cy="67" r="8"/><circle class="st0" cx="1043.5" cy="82.5" r="9.5"/><path class="st0" d="M1043 54.5c0 3 2.5 5.5 5.5 5.5s5.5-2.5 5.5-5.5-2.5-5.5-5.5-5.5-5.5 2.5-5.5 5.5z"/><path class="st0" d="M1045 59.5c0 1.9 1.6 3.5 3.5 3.5s3.5-1.6 3.5-3.5-1.6-3.5-3.5-3.5-3.5 1.6-3.5 3.5zM1022 84c0 2.2 1.8 4 4 4s4-1.8 4-4-1.8-4-4-4-4 1.8-4 4z"/><path class="st0" d="M1025 80c0 1.7 1.3 3 3 3s3-1.3 3-3-1.3-3-3-3-3 1.3-3 3zm1-27c0 1.7 1.3 3 3 3s3-1.3 3-3-1.3-3-3-3-3 1.3-3 3zm16 15c0 1.7 1.3 3 3 3s3-1.3 3-3-1.3-3-3-3-3 1.3-3 3z"/></g><path class="st0" d="M1015 82c3.3 0 6 2.7 6 6s-2.7 6-6 6-6-2.7-6-6 2.7-6 6-6m0-1c-3.9 0-7 3.1-7 7s3.1 7 7 7 7-3.1 7-7-3.1-7-7-7zm3.5-26c3.6 0 6.5 2.9 6.5 6.5s-2.9 6.5-6.5 6.5-6.5-2.9-6.5-6.5 2.9-6.5 6.5-6.5m0-1c-4.1 0-7.5 3.4-7.5 7.5s3.4 7.5 7.5 7.5 7.5-3.4 7.5-7.5-3.4-7.5-7.5-7.5z"/><path class="st0" d="M1030 60c3.9 0 7 3.1 7 7s-3.1 7-7 7-7-3.1-7-7 3.1-7 7-7m0-1c-4.4 0-8 3.6-8 8s3.6 8 8 8 8-3.6 8-8-3.6-8-8-8zm13.5 15c4.7 0 8.5 3.8 8.5 8.5s-3.8 8.5-8.5 8.5-8.5-3.8-8.5-8.5 3.8-8.5 8.5-8.5m0-1c-5.2 0-9.5 4.3-9.4 9.5s4.3 9.5 9.5 9.4c5.2 0 9.5-4.3 9.4-9.5 0-5.2-4.3-9.4-9.5-9.4zm5-23c2.5 0 4.5 2 4.5 4.5s-2 4.5-4.5 4.5-4.5-2-4.5-4.5 2-4.5 4.5-4.5m0-1c-3 0-5.5 2.5-5.5 5.5s2.5 5.5 5.5 5.5 5.5-2.5 5.5-5.5-2.5-5.5-5.5-5.5z"/><path class="st0" d="M1048.5 57c1.4 0 2.5 1.1 2.5 2.5s-1.1 2.5-2.5 2.5-2.5-1.1-2.5-2.5 1.1-2.5 2.5-2.5m0-1c-1.9 0-3.5 1.6-3.5 3.5s1.6 3.5 3.5 3.5 3.5-1.6 3.5-3.5-1.6-3.5-3.5-3.5zM1026 81c1.7 0 3 1.3 3 3s-1.3 3-3 3-3-1.3-3-3 1.3-3 3-3m0-1c-2.2 0-4 1.8-4 4s1.8 4 4 4 4-1.8 4-4-1.8-4-4-4z"/><path class="st0" d="M1028 78c1.1 0 2 .9 2 2s-.9 2-2 2-2-.9-2-2 .9-2 2-2m0-1c-1.7 0-3 1.3-3 3s1.3 3 3 3 3-1.3 3-3-1.3-3-3-3zm1-26c1.1 0 2 .9 2 2s-.9 2-2 2-2-.9-2-2 .9-2 2-2m0-1c-1.7 0-3 1.3-3 3s1.3 3 3 3 3-1.3 3-3-1.3-3-3-3zm16 16c1.1 0 2 .9 2 2s-.9 2-2 2-2-.9-2-2 .9-2 2-2m0-1c-1.7 0-3 1.3-3 3s1.3 3 3 3 3-1.3 3-3-1.3-3-3-3z"/><path class="st2" d="M1055 48h48v48h-48z"/><g class="st98"><path class="st0" d="M1056 67h11v14h-11zm12-8h10v9h-10zm11 0h11v22h-11zm12 10h11v12h-11z"/></g><path class="st0" d="M1066 68v12h-9V68h9m1-1h-11v14h11V67zm10-7v7h-8v-7h8m1-1h-10v9h10v-9zm11 1v20h-9V60h9m1-1h-11v22h11V59zm11 11v10h-9V70h9m1-1h-11v12h11V69z"/><path class="st1" d="M1061.5 67V57m12 2V49m11 4v6m12-10v20m-23 12V67m11 14v6m12-6v14m-35-4V81"/><path class="st2" d="M1103 48h48v48h-48z"/><path class="st1" d="M1150 55.2l-8-4.2-6 5-7 4-10-2-8-5-7 6m46 2l-4-2-8 2-5 6-10.2 2.6L1107 79l-3-2"/><path class="st1" d="M1150 78l-6 1-7-7-15 4-8-5.3-10 1.3m46 17.1l-3 .9-8-9-4 6-9-1-7 7-15-1"/><path class="st2" d="M1151 48h48v48h-48z"/><path class="st106" d="M1152 70.5h46"/><path class="st2" d="M1199 48h48v48h-48z"/><path class="st106" d="M1200 70.5h46"/><path class="st0" d="M1231 49h13.6l.4 5h-.5s-.2-1.9-.5-2.6c-.2-.4-.6-.8-1-1-.6-.3-2-.4-2-.4h-6.1l5.4 6.8-6.1 7.2h6.9s2 .4 2.9 0c.8-.6 1.3-1.5 1.5-2.5l.5.1-1 5.4h-14v-.4l7-8.2-7-8.9V49z"/><path class="st2" d="M1247 48h48v48h-48z"/><path class="st106" d="M1248 66.5s5.9 5.6 20.9 9.5c15 3.9 25.1 2.5 25.1 2.5"/><path class="st0" d="M1279 49h13.6l.4 5h-.5s-.2-1.9-.5-2.6c-.2-.4-.6-.8-1-1-.6-.3-2-.4-2-.4h-6.1l5.4 6.8-6.1 7.2h6.9s2 .4 2.9 0c.8-.6 1.3-1.5 1.5-2.5l.5.1-1 5.4h-14v-.4l7-8.2-7-8.9V49z"/><path class="st2" d="M1295 48h48v48h-48z"/><path class="st106" d="M1296 66.5l46 12"/><path class="st0" d="M1327 49h13.6l.4 5h-.5s-.2-1.9-.5-2.6c-.2-.4-.6-.8-1-1-.6-.3-2-.4-2-.4h-6.1l5.4 6.8-6.1 7.2h6.9s2 .4 2.9 0c.8-.6 1.3-1.5 1.5-2.5l.5.1-1 5.4h-14v-.4l7-8.2-7-8.9V49z"/><path class="st2" d="M1343 48h48v48h-48z"/><g class="st98"><path class="st0" d="M1383 55.5l-6.8 7.4c1.7 1.7 2.8 3.8 3.4 6.1l9.7-2.5c-1-4.2-3.2-8-6.3-11zm-36.4 5.9l8.9 4.6c3.3-6.4 11.2-8.8 17.6-5.5.9.5 1.7 1 2.4 1.7l6.6-7.5c-9.6-8.3-24.1-7.3-32.4 2.3-1.3 1.3-2.3 2.8-3.1 4.4zM1354 72c0-1.6.3-3.3.9-4.8l-9-4.3c-5 11.7.4 25.2 12 30.2 2.9 1.2 5.9 1.9 9.1 1.9V85c-7.2 0-13-5.8-13-13zm25.9-1.7c.1.6.1 1.1.1 1.7 0 6.8-5.2 12.5-12 13v10c12.7-.6 22.5-11.3 22-24 0-1-.1-2-.3-2.9l-9.8 2.2z"/></g><path class="st0" d="M1383.1 57c2.3 2.5 4 5.5 5 8.8l-7.8 2c-.6-1.8-1.5-3.4-2.7-4.9l5.5-5.9m0-1.5l-6.8 7.4c1.6 1.7 2.8 3.8 3.3 6.1l9.7-2.5c-1-4.2-3.2-8-6.2-11zM1367 50c5 0 9.8 1.7 13.7 4.8l-5.3 6c-6.2-4.6-15-3.4-19.6 2.8-.3.3-.5.7-.7 1L1348 61c3.9-6.8 11.2-11 19-11m0-1c-8.6 0-16.4 4.8-20.4 12.4l8.9 4.6c3.3-6.4 11.2-8.8 17.6-5.5.9.5 1.7 1 2.4 1.7l6.6-7.5c-4.2-3.7-9.6-5.7-15.1-5.7zm-20.6 15.3l7.3 3.5c-2.4 7.4 1.7 15.2 9 17.6 1.1.3 2.2.6 3.3.6v8c-12.1-.5-21.5-10.8-21-23 .1-2.3.6-4.6 1.4-6.7m-.5-1.3c-5 11.7.4 25.2 12 30.2 2.9 1.2 6 1.9 9.1 1.9v-10c-7.2 0-13-5.8-13-13 0-1.6.3-3.3.9-4.8l-9-4.3zm42.9 6.3c.1.9.2 1.8.2 2.7 0 11.4-8.7 20.9-20 21.9v-8.1c6.9-1 12-6.9 12-13.8v-.9l7.8-1.8m.9-1.3l-9.8 2.2c.1.6.1 1.1.1 1.7 0 6.8-5.2 12.5-12 13v10c12.7-.6 22.5-11.3 22-24-.1-.9-.2-1.9-.3-2.9z"/><path class="st2" d="M1391 48h48v48h-48z"/><g class="st98"><path class="st0" d="M1410 87h10v8h-10zm10.4-1l6.4-13h-23.6l6.4 13zm6.8-14l8.4-17h-41.2l8.4 17zm8.8-18l2-4v-1h-46v1l2 4z"/></g><path class="st0" d="M1419 88v6h-8v-6h8m1-1h-10v8h10v-8zm5.2-13l-5.4 11h-9.6l-5.4-11h20.2m1.8-1h-23.5l6.4 13h10.8l6.3-13zm7.2-17l-7.4 15h-23.2l-7.3-15h37.9m1.6-1h-41.2l8.3 17h24.5l8.4-17zm1.3-5l-1.5 3h-40.8l-1.5-3h43.9m1-1h-46v1l2 4h42l2-4v-1z"/><path class="st2" d="M1439 48h48v48h-48z"/><g class="st98"><path class="st0" d="M1439 91h5v5h-5zm6 0h5v5h-5zm6 0h5v5h-5zm6 0h5v5h-5zm6 0h5v5h-5zm6 0h5v5h-5zm6 0h5v5h-5zm6 0h5v5h-5zm-42-6h5v5h-5zm6 0h5v5h-5zm6 0h5v5h-5zm6 0h5v5h-5zm6 0h5v5h-5zm6 0h5v5h-5zm6 0h5v5h-5zm6 0h5v5h-5zm-42-6h5v5h-5zm6 0h5v5h-5zm6 0h5v5h-5zm6 0h5v5h-5zm6 0h5v5h-5zm6 0h5v5h-5zm6 0h5v5h-5zm6 0h5v5h-5zm-42-6h5v5h-5zm6 0h5v5h-5zm6 0h5v5h-5zm6 0h5v5h-5zm6 0h5v5h-5zm6 0h5v5h-5zm6 0h5v5h-5zm6 0h5v5h-5zm-42-24h5v5h-5zm6 0h5v5h-5zm6 0h5v5h-5zm6 0h5v5h-5zm6 0h5v5h-5zm6 0h5v5h-5zm6 0h5v5h-5zm6 0h5v5h-5zm-42 6h5v5h-5zm6 0h5v5h-5zm6 0h5v5h-5zm6 0h5v5h-5zm6 0h5v5h-5zm6 0h5v5h-5zm6 0h5v5h-5zm6 0h5v5h-5zm-42 6h5v5h-5zm6 0h5v5h-5zm6 0h5v5h-5zm6 0h5v5h-5zm6 0h5v5h-5zm6 0h5v5h-5zm6 0h5v5h-5zm6 0h5v5h-5zm-42 6h5v5h-5zm6 0h5v5h-5zm6 0h5v5h-5zm6 0h5v5h-5zm6 0h5v5h-5zm6 0h5v5h-5zm6 0h5v5h-5zm6 0h5v5h-5z"/></g><path class="st0" d="M1443 92v3h-3v-3h3m1-1h-5v5h5v-5zm5 1v3h-3v-3h3m1-1h-5v5h5v-5zm5 1v3h-3v-3h3m1-1h-5v5h5v-5zm5 1v3h-3v-3h3m1-1h-5v5h5v-5zm5 1v3h-3v-3h3m1-1h-5v5h5v-5zm5 1v3h-3v-3h3m1-1h-5v5h5v-5zm5 1v3h-3v-3h3m1-1h-5v5h5v-5zm5 1v3h-3v-3h3m1-1h-5v5h5v-5zm-43-5v3h-3v-3h3m1-1h-5v5h5v-5zm5 1v3h-3v-3h3m1-1h-5v5h5v-5zm5 1v3h-3v-3h3m1-1h-5v5h5v-5zm5 1v3h-3v-3h3m1-1h-5v5h5v-5zm5 1v3h-3v-3h3m1-1h-5v5h5v-5zm5 1v3h-3v-3h3m1-1h-5v5h5v-5zm5 1v3h-3v-3h3m1-1h-5v5h5v-5zm5 1v3h-3v-3h3m1-1h-5v5h5v-5zm-43-5v3h-3v-3h3m1-1h-5v5h5v-5zm5 1v3h-3v-3h3m1-1h-5v5h5v-5zm5 1v3h-3v-3h3m1-1h-5v5h5v-5zm5 1v3h-3v-3h3m1-1h-5v5h5v-5zm5 1v3h-3v-3h3m1-1h-5v5h5v-5zm5 1v3h-3v-3h3m1-1h-5v5h5v-5zm5 1v3h-3v-3h3m1-1h-5v5h5v-5zm5 1v3h-3v-3h3m1-1h-5v5h5v-5zm-43-5v3h-3v-3h3m1-1h-5v5h5v-5zm5 1v3h-3v-3h3m1-1h-5v5h5v-5zm5 1v3h-3v-3h3m1-1h-5v5h5v-5zm5 1v3h-3v-3h3m1-1h-5v5h5v-5zm5 1v3h-3v-3h3m1-1h-5v5h5v-5zm5 1v3h-3v-3h3m1-1h-5v5h5v-5zm5 1v3h-3v-3h3m1-1h-5v5h5v-5zm5 1v3h-3v-3h3m1-1h-5v5h5v-5zm-43-23v3h-3v-3h3m1-1h-5v5h5v-5zm5 1v3h-3v-3h3m1-1h-5v5h5v-5zm5 1v3h-3v-3h3m1-1h-5v5h5v-5zm5 1v3h-3v-3h3m1-1h-5v5h5v-5zm5 1v3h-3v-3h3m1-1h-5v5h5v-5zm5 1v3h-3v-3h3m1-1h-5v5h5v-5zm5 1v3h-3v-3h3m1-1h-5v5h5v-5zm5 1v3h-3v-3h3m1-1h-5v5h5v-5zm-43 7v3h-3v-3h3m1-1h-5v5h5v-5zm5 1v3h-3v-3h3m1-1h-5v5h5v-5zm5 1v3h-3v-3h3m1-1h-5v5h5v-5zm5 1v3h-3v-3h3m1-1h-5v5h5v-5zm5 1v3h-3v-3h3m1-1h-5v5h5v-5zm5 1v3h-3v-3h3m1-1h-5v5h5v-5zm5 1v3h-3v-3h3m1-1h-5v5h5v-5zm5 1v3h-3v-3h3m1-1h-5v5h5v-5zm-43 7v3h-3v-3h3m1-1h-5v5h5v-5zm5 1v3h-3v-3h3m1-1h-5v5h5v-5zm5 1v3h-3v-3h3m1-1h-5v5h5v-5zm5 1v3h-3v-3h3m1-1h-5v5h5v-5zm5 1v3h-3v-3h3m1-1h-5v5h5v-5zm5 1v3h-3v-3h3m1-1h-5v5h5v-5zm5 1v3h-3v-3h3m1-1h-5v5h5v-5zm5 1v3h-3v-3h3m1-1h-5v5h5v-5zm-43 7v3h-3v-3h3m1-1h-5v5h5v-5zm5 1v3h-3v-3h3m1-1h-5v5h5v-5zm5 1v3h-3v-3h3m1-1h-5v5h5v-5zm5 1v3h-3v-3h3m1-1h-5v5h5v-5zm5 1v3h-3v-3h3m1-1h-5v5h5v-5zm5 1v3h-3v-3h3m1-1h-5v5h5v-5zm5 1v3h-3v-3h3m1-1h-5v5h5v-5zm5 1v3h-3v-3h3m1-1h-5v5h5v-5z"/><path class="st2" d="M1487 48h48v48h-48z"/><g class="st98"><path class="st0" d="M1527 62.5L1512 79l21.3-5.5c-1-4.2-3.2-8-6.3-11zm-36.4 5.9L1511 79l15.1-17.3c-9.6-8.3-24.1-7.3-32.4 2.3-1.2 1.3-2.3 2.8-3.1 4.4zM1511 81v-1l-21.1-10.1c-1.2 2.9-1.9 6-1.9 9.1 0 .7 0 1.3.1 2h22.9zm1-1v1h21.9c0-.7.1-1.3.1-2 0-1.3-.1-2.6-.3-3.9L1512 80z"/></g><path class="st0" d="M1527.1 64c2.3 2.5 4 5.5 5 8.8l-17.1 4.4 12.1-13.2m0-1.5L1512 79l21.3-5.5c-1-4.2-3.2-8-6.2-11zM1511 57c5 0 9.8 1.7 13.7 4.8l-13.9 16L1492 68c3.9-6.8 11.2-11 19-11m0-1c-8.6 0-16.4 4.8-20.4 12.4L1511 79l15.1-17.3c-4.2-3.7-9.6-5.7-15.1-5.7zm-20.6 15.3l18.3 8.7H1489v-1c0-2.6.5-5.3 1.4-7.7m-.5-1.4c-1.2 2.9-1.9 6-1.9 9.1 0 .7 0 1.3.1 2h22.9v-1l-21.1-10.1zm42.9 6.4c.1.9.2 1.8.2 2.7v1h-16.5l16.3-3.7m.9-1.2L1512 80v1h21.9c.1-.7.1-1.3.1-2 0-1.3-.1-2.6-.3-3.9z"/><path class="st2" d="M1583 48h48v48h-48z"/><g class="st98"><path class="st0" d="M1607 86h14v9h-14zm0-12h23v9h-23zm0-12h10v9h-10zm0-12h19v9h-19z"/></g><path class="st0" d="M1620 87v7h-12v-7h12m1-1h-14v9h14v-9zm8-11v7h-21v-7h21m1-1h-23v9h23v-9zm-14-11v7h-8v-7h8m1-1h-10v9h10v-9zm8-11v7h-17v-7h17m1-1h-19v9h19v-9z"/><g class="st98"><path class="st0" d="M1592 86h12v9h-12zm-8-12h20v9h-20zm5-12h15v9h-15zm7-12h8v9h-8z"/></g><path class="st0" d="M1603 87v7h-10v-7h10m1-1h-12v9h12v-9zm-1-11v7h-18v-7h18m1-1h-20v9h20v-9zm-1-11v7h-13v-7h13m1-1h-15v9h15v-9zm-1-11v7h-6v-7h6m1-1h-8v9h8v-9zm1-1h1v47h-1z"/><path class="st2" d="M1679 48h48v48h-48z"/><g class="st98"><path class="st0" d="M1706 86h8v9h-8zm1-12h19v9h-19zm-9-12h12v9h-12zm5-12h16v9h-16zm-10 36h12v9h-12zm4-12h9v9h-9zm-5-12h5v9h-5zm3-12h7v9h-7zm-8 36h5v9h-5zm5-12h4v9h-4zm-6-12h5v9h-5zm2-12h6v9h-6zm-8 36h6v9h-6zm0-12h11v9h-11zm0-12h5v9h-5zm0-12h7v9h-7z"/></g><path class="st0" d="M1713 87v7h-6v-7h6m1-1h-8v9h8v-9zm11-11v7h-17v-7h17m1-1h-19v9h19v-9zm-17-11v7h-10v-7h10m1-1h-12v9h12v-9zm8-11v7h-14v-7h14m1-1h-16v9h16v-9zm-15 37v7h-10v-7h10m1-1h-12v9h12v-9zm0-11v7h-7v-7h7m1-1h-9v9h9v-9zm-10-11v7h-3v-7h3m1-1h-5v9h5v-9zm4-11v7h-5v-7h5m1-1h-7v9h7v-9zm-11 37v7h-3v-7h3m1-1h-5v9h5v-9zm3-11v7h-2v-7h2m1-1h-4v9h4v-9zm-6-11v7h-3v-7h3m1-1h-5v9h5v-9zm2-11v7h-4v-7h4m1-1h-6v9h6v-9zm-9 37v7h-4v-7h4m1-1h-6v9h6v-9zm4-11v7h-9v-7h9m1-1h-11v9h11v-9zm-7-11v7h-3v-7h3m1-1h-5v9h5v-9zm1-11v7h-5v-7h5m1-1h-7v9h7v-9z"/><path class="st2" d="M1631 48h48v48h-48z"/><g class="st98"><path class="st0" d="M1668 61h9v8h-9zm-12-12h9v19h-9zm-12 16h9v12h-9zm-12-9h9v16h-9zm36 14h9v12h-9zm-12-1h9v9h-9zm-12 9h9v5h-9zm-12-5h9v7h-9zm36 10h9v5h-9zm-12-4h9v4h-9zm-12 5h9v5h-9zm-12-3h9v6h-9zm36 8h9v6h-9zm-12-5h9v11h-9zm-12 6h9v5h-9zm-12-2h9v7h-9z"/></g><path class="st0" d="M1676 62v6h-7v-6h7m1-1h-9v8h9v-8zm-13-11v17h-7V50h7m1-1h-9v19h9V49zm-13 17v10h-7V66h7m1-1h-9v12h9V65zm-13-8v14h-7V57h7m1-1h-9v16h9V56zm35 15v10h-7V71h7m1-1h-9v12h9V70zm-13 0v7h-7v-7h7m1-1h-9v9h9v-9zm-13 10v3h-7v-3h7m1-1h-9v5h9v-5zm-13-4v5h-7v-5h7m1-1h-9v7h9v-7zm35 11v3h-7v-3h7m1-1h-9v5h9v-5zm-13-3v2h-7v-2h7m1-1h-9v4h9v-4zm-13 6v3h-7v-3h7m1-1h-9v5h9v-5zm-13-2v4h-7v-4h7m1-1h-9v6h9v-6zm35 9v4h-7v-4h7m1-1h-9v6h9v-6zm-13-4v9h-7v-9h7m1-1h-9v11h9V84zm-13 7v3h-7v-3h7m1-1h-9v5h9v-5zm-13-1v5h-7v-5h7m1-1h-9v7h9v-7z"/><path class="st2" d="M1535 48h48v48h-48z"/><g class="st98"><path class="st0" d="M1572 61h9v34h-9zm-12-12h9v46h-9zm-12 16h9v30h-9zm-12-9h9v39h-9z"/></g><path class="st0" d="M1573 62h7v32h-7V62m-1-1v34h9V61h-9zm-11-11h7v44h-7V50m-1-1v46h9V49h-9zm-11 17h7v28h-7V66m-1-1v30h9V65h-9zm-4-8v37h-7V57h7m1-1h-9v39h9V56z"/><path class="st2" d="M16 64h16v16H16z"/><path class="st0" d="M31 75v4H17v-4h14m1-1H16v6h16v-6z"/><g class="st107"><path class="st0" d="M31 65v14H17V65h14m1-1H16v16h16V64z"/></g><path class="st1" d="M24 67v7"/><path class="st0" d="M19.9 70.6l.7-.7 3.4 3.6 3.4-3.6.7.7L24 75zM18 76h2v2h-2zm3 0h2v2h-2zm3 0h2v2h-2zm4 0h2v2h-2z"/><path class="st2" d="M0 64h16v16H0z"/><path class="st0" d="M15 67v6H5.7l-.3.2L3 74.9V73H1v-6h14m1-1H0v8h2v3l4-3h10v-8z"/><path class="st0" d="M2 69h2v2H2zm3 0h2v2H5zm3 0h2v2H8zm4 0h2v2h-2z"/><path class="st2" d="M48 64h16v16H48z"/><path class="st0" d="M63 65v14h-4V65h4m1-1h-6v16h6V64z"/><g class="st107"><path class="st0" d="M63 65v14H49V65h14m1-1H48v16h16V64z"/></g><path class="st1" d="M51 72h7"/><path class="st0" d="M54.6 76.1l-.7-.7 3.6-3.4-3.6-3.4.7-.7L59 72zM60 66h2v2h-2zm0 3h2v2h-2zm0 3h2v2h-2zm0 4h2v2h-2z"/><path class="st2" d="M64 64h16v16H64z"/><path class="st0" d="M69 65v14h-4V65h4m1-1h-6v16h6V64z"/><g class="st107"><path class="st0" d="M79 65v14H65V65h14m1-1H64v16h16V64z"/></g><path class="st1" d="M77 72h-7"/><path class="st0" d="M73.4 67.9l.7.7-3.6 3.4 3.6 3.4-.7.7L69 72zM66 66h2v2h-2zm0 3h2v2h-2zm0 3h2v2h-2zm0 4h2v2h-2z"/><path class="st2" d="M32 64h16v16H32z"/><path class="st0" d="M47 65v4H33v-4h14m1-1H32v6h16v-6z"/><g class="st107"><path class="st0" d="M47 65v14H33V65h14m1-1H32v16h16V64z"/></g><path class="st1" d="M40 77v-7"/><path class="st0" d="M44.1 73.4l-.7.7-3.4-3.6-3.4 3.6-.7-.7L40 69zM34 66h2v2h-2zm3 0h2v2h-2zm3 0h2v2h-2zm4 0h2v2h-2z"/><path class="st2" d="M1727 48h48v48h-48z"/><g class="st98"><path class="st0" d="M1728 86h34v9h-34zm0-12h46v9h-46zm0-12h30v9h-30zm0-12h39v9h-39z"/></g><path class="st0" d="M1761 87v7h-32v-7h32m1-1h-34v9h34v-9zm11-11v7h-44v-7h44m1-1h-46v9h46v-9zm-17-11v7h-28v-7h28m1-1h-30v9h30v-9zm8-11v7h-37v-7h37m1-1h-39v9h39v-9z"/><path class="st2" d="M1775 48h48v48h-48z"/><g class="st98"><path class="st0" d="M1776 73h11v22h-11zm12-13h11v27h-11zm12 3h10v17h-10zm11-14h11v35h-11z"/></g><path class="st0" d="M1786 74v20h-9V74h9m1-1h-11v22h11V73zm11-12v25h-9V61h9m1-1h-11v27h11V60zm10 4v15h-8V64h8m1-1h-10v17h10V63zm11-13v33h-9V50h9m1-1h-11v35h11V49z"/><path class="st2" d="M1823 48h48v48h-48z"/><g class="st98"><path class="st0" d="M1864 52c0 1.7 1.3 3 3 3s3-1.3 3-3-1.3-3-3-3-3 1.3-3 3zm-9 10c0 1.7 1.3 3 3 3s3-1.3 3-3-1.3-3-3-3-3 1.3-3 3zm6 10c0 1.7 1.3 3 3 3s3-1.3 3-3-1.3-3-3-3-3 1.3-3 3zm-25-17c0 1.7 1.3 3 3 3s3-1.3 3-3-1.3-3-3-3-3 1.3-3 3zm3.5 20.6c-1 2.3.9 4.4 3.1 4.1 1.2-.2 2.2-1.1 2.4-2.3.3-1.8-1.1-3.4-2.8-3.4-1.2 0-2.2.6-2.7 1.6zM1824 92c0 1.7 1.3 3 3 3s3-1.3 3-3-1.3-3-3-3-3 1.3-3 3zm3.5-7.5c0 1.7 1.3 3 3 3s3-1.3 3-3-1.3-3-3-3-3 1.3-3 3zm9.5 5.5c0 1.7 1.3 3 3 3s3-1.3 3-3-1.3-3-3-3-3 1.3-3 3zm-9-19c0 1.7 1.3 3 3 3s3-1.3 3-3-1.3-3-3-3-3 1.3-3 3zm4-7.6c0 1.7 1.3 3 3 3s3-1.3 3-3-1.3-3-3-3-3 1.3-3 3z"/><circle class="st0" cx="1850" cy="57" r="3"/><path class="st0" d="M1848 87c0 1.7 1.3 3 3 3s3-1.3 3-3-1.3-3-3-3-3 1.3-3 3zm-4-19c0 1.7 1.3 3 3 3s3-1.3 3-3-1.3-3-3-3-3 1.3-3 3zm7 9c0 1.7 1.3 3 3 3s3-1.3 3-3-1.3-3-3-3-3 1.3-3 3z"/></g><path class="st0" d="M1841.9 75.2c1 0 1.9.8 1.9 1.9 0 1-.8 1.9-1.9 1.9-1 0-1.9-.8-1.9-1.9 0-1 .8-1.9 1.9-1.9m.2-1c-1.6 0-2.9 1.3-2.9 2.9 0 1.6 1.3 2.9 2.9 2.9 1.6 0 2.9-1.3 2.9-2.9 0-1.6-1.3-2.9-2.9-2.9zM1840 88c1.1 0 2 .9 2 2s-.9 2-2 2-2-.9-2-2 .9-2 2-2m0-1c-1.7 0-3 1.3-3 3s1.3 3 3 3 3-1.3 3-3-1.3-3-3-3zm-9-18c1.1 0 2 .9 2 2s-.9 2-2 2-2-.9-2-2 .9-2 2-2m0-1c-1.7 0-3 1.3-3 3s1.3 3 3 3 3-1.3 3-3-1.3-3-3-3zm4-6.6c1.1 0 2 .9 2 2s-.9 2-2 2-2-.9-2-2 .9-2 2-2m0-1c-1.7 0-3 1.3-3 3s1.3 3 3 3 3-1.3 3-3-1.3-3-3-3z"/><path class="st1" d="M1834 65l-2 4m1 4l7 3m4 2l5 7m0 3l-7 2"/><path class="st0" d="M1851 85c1.1 0 2 .9 2 2s-.9 2-2 2-2-.9-2-2 .9-2 2-2m0-1c-1.7 0-3 1.3-3 3s1.3 3 3 3 3-1.3 3-3-1.3-3-3-3zm16-34c1.1 0 2 .9 2 2s-.9 2-2 2-2-.9-2-2 .9-2 2-2m0-1c-1.7 0-3 1.3-3 3s1.3 3 3 3 3-1.3 3-3-1.3-3-3-3zm-9 11c1.1 0 2 .9 2 2s-.9 2-2 2-2-.9-2-2 .9-2 2-2m0-1c-1.7 0-3 1.3-3 3s1.3 3 3 3 3-1.3 3-3-1.3-3-3-3zm-8-4c1.1 0 2 .9 2 2s-.9 2-2 2-2-.9-2-2 .9-2 2-2m0-1c-1.7 0-3 1.3-3 3s1.3 3 3 3 3-1.3 3-3-1.3-3-3-3z"/><path class="st1" d="M1856 61l-4-2m0-3l13-3"/><path class="st0" d="M1864 70c1.1 0 2 .9 2 2s-.9 2-2 2-2-.9-2-2 .9-2 2-2m0-1c-1.7 0-3 1.3-3 3s1.3 3 3 3 3-1.3 3-3-1.3-3-3-3zm-25-16c1.1 0 2 .9 2 2s-.9 2-2 2-2-.9-2-2 .9-2 2-2m0-1c-1.7 0-3 1.3-3 3s1.3 3 3 3 3-1.3 3-3-1.3-3-3-3zm8 14c1.1 0 2 .9 2 2s-.9 2-2 2-2-.9-2-2 .9-2 2-2m0-1c-1.7 0-3 1.3-3 3s1.3 3 3 3 3-1.3 3-3-1.3-3-3-3zm7 10c1.1 0 2 .9 2 2s-.9 2-2 2-2-.9-2-2 .9-2 2-2m0-1c-1.7 0-3 1.3-3 3s1.3 3 3 3 3-1.3 3-3-1.3-3-3-3z"/><path class="st1" d="M1840 57l6 9m7 9l-4-5m7 6l6-3"/><path class="st0" d="M1827 90c1.1 0 2 .9 2 2s-.9 2-2 2-2-.9-2-2 .9-2 2-2m0-1c-1.7 0-3 1.3-3 3s1.3 3 3 3 3-1.3 3-3-1.3-3-3-3zm3.5-6.5c1.1 0 2 .9 2 2s-.9 2-2 2-2-.9-2-2 .9-2 2-2m0-1c-1.7 0-3 1.3-3 3s1.3 3 3 3 3-1.3 3-3-1.3-3-3-3z"/><path class="st1" d="M1829 87l-1 3"/><path class="st2" d="M1871 48h48v48h-48z"/><g class="st98"><path class="st0" d="M1899.9 57l-3.9-8h-2l-3.9 8zm-16.7 14h23.6l-6.4-13h-10.8zm-8.8 18h41.2l-8.4-17h-24.4zm-.4 1l-2 4v1h46v-1l-2-4z"/></g><path class="st0" d="M1895.4 50l2.9 6h-6.6l2.9-6h.4m1-1h-2l-3.9 8h9.8l-3.9-8zm3.8 10l5.4 11h-20.3l5.4-11h9.8m.3-1h-10.8l-6.4 13h23.5l-6.3-13zm6.2 15l7.4 15h-37.9l7.3-15h23.6m.2-1h-24.5l-8.3 17h41.1l-8.3-17zm8.2 19l1.5 3h-43.8l1.5-3h40.4m1-1h-42l-2 4v1h46v-1l-2-4z"/><path class="st2" d="M1919 48h48v48h-48z"/><defs><path id="SVGID_183_" d="M1919 48v48h48V48h-48zm40.7 45.2l-2.5 1.7-13.8-20.2-13.8 20.2-2.5-1.7 13.9-20.3-20.1-6.4.9-2.9L1942 70V50h3v20l20-6.4.9 2.9-20 6.3 13.8 20.4z"/></defs><clipPath id="SVGID_184_"><use xlink:href="#SVGID_183_" overflow="visible"/></clipPath><g clip-path="url(#SVGID_184_)"><g class="st98"><path class="st0" d="M1950.6 63.7l-7.6-12-11.7 12.8L1943 62zm3.9 16L1952 85l-3.1.5 6.1 4.5zm0 0L1961 66l-10.4-2.3 3.4 5.3zM1929 67l2.3-2.5-7.3 1.5 8 22 16.9-2.5-9.9-7.5z"/><path class="st0" d="M1954 69l-3.4-5.3-7.6-1.7-11.7 2.5-2.3 2.5 10 11 9.9 7.5 3.1-.5 2.5-5.3z"/></g><path class="st0" d="M1942.9 53.3l5.6 8.9-5.3-1.2h-.4l-8.6 1.8 8.7-9.5m.1-1.6l-11.7 12.8L1943 62l7.6 1.7-7.6-12zm10.7 32l.2 4.2-2.4-1.8.7-.1.5-.1.2-.5.8-1.7m1.3-4l-2.5 5.3-3.1.5 6.1 4.5-.5-10.3z"/><path class="st0" d="M1952.8 65.2l6.8 1.5-4.2 9-.4-6.7v-.3l-.2-.2-2-3.3m-2.2-1.5l3.4 5.3.5 10.7L1961 66l-10.4-2.3zm-22.1 2.4l-.2.2-.6.7.6.7 10 11 .1.1.1.1 8 6-13.7 2.1-7.3-20.2 3-.7m2.8-1.6L1924 66l8 22 16.9-2.5-9.9-7.5-10-11 2.3-2.5z"/><path class="st0" d="M1943 63l7 1.6 3 4.7.5 10.2-2.2 4.6-2.1.3-9.5-7.2-9.3-10.3 1.5-1.6L1943 63m0-1l-11.7 2.5-2.3 2.5 10 11 9.9 7.5 3.1-.5 2.5-5.3-.5-10.7-3.4-5.3-7.6-1.7z"/></g><path class="st1" d="M1943 72l-15 22m15-22l15 22m-15-22l22-7m-44 0l22 7m.5 0V50"/><path class="st2" d="M2015 48h48v48h-48z"/><g class="st98"><path class="st0" d="M2049.6 61.4l-4.7 5.2c.9 1 1.6 2.3 1.9 3.6l6.8-1.8c-.7-2.6-2-5-4-7zM2039 57c-5.6 0-10.7 3.1-13.3 8.1l6.2 3.2c2.1-3.9 6.9-5.4 10.8-3.3.5.3 1.1.6 1.5 1l4.6-5.3c-2.7-2.4-6.2-3.7-9.8-3.7zm-8 15c0-.9.2-1.8.4-2.6l-6.3-3c-3.1 7.7.6 16.4 8.3 19.5 1.8.7 3.7 1.1 5.6 1.1v-7c-4.4 0-8-3.6-8-8zm16 0c0 4-3 7.4-7 7.9v7c8.2-.5 14.5-7.5 14-15.7 0-.5-.1-.9-.1-1.4l-6.8 1.6c-.1.2-.1.4-.1.6z"/><path class="st0" d="M2018.6 61.4l6.2 3.2c1.6-3.1 4.2-5.5 7.3-7l-3-6.3c-4.5 2.1-8.2 5.7-10.5 10.1zm9.4 22.2l-5.1 4.9c4.3 4.2 10.1 6.6 16.1 6.6v-7c-4.1-.1-8-1.7-11-4.5zm-5.8 4.2l5-5c-2-2.2-3.4-4.8-4-7.8l-6.9 1c.8 4.4 2.9 8.5 5.9 11.8zm23.9-1.5c-1.9 1-3.9 1.5-6.1 1.7v7c3.1-.1 6.2-.9 9-2.2l-2.9-6.5zm11-.1l-5.6-4.2c-1.2 1.5-2.7 2.8-4.4 3.8l3 6.3c2.7-1.5 5.1-3.5 7-5.9zm-2.3-16.6c.1.8.2 1.6.2 2.4 0 3.3-1 6.5-2.9 9.2l5.8 4c3.5-5 4.9-11.1 3.8-17.1l-6.9 1.5z"/></g><path class="st1" d="M2049.6 61.4l-4.7 5.2c.9 1 1.6 2.3 1.9 3.6l6.8-1.8c-.7-2.6-2-5-4-7z"/><path class="st0" d="M2039 58c3 0 6 1 8.4 2.8l-3.3 3.8c-4.1-2.8-9.7-1.8-12.5 2.3 0 0 0 .1-.1.1l-4.5-2.3c2.6-4.2 7.1-6.7 12-6.7m0-1c-5.6 0-10.7 3.1-13.3 8.1l6.2 3.2c2.1-3.9 6.9-5.4 10.8-3.3.5.3 1.1.6 1.5 1l4.6-5.3c-2.7-2.4-6.2-3.7-9.8-3.7zm-13.3 10.7l4.6 2.2c-.2.7-.3 1.4-.2 2.1 0 4.6 3.4 8.4 8 8.9v5c-7.3-.5-13-6.6-13-13.9-.1-1.4.1-2.9.6-4.3m-.7-1.4c-3.1 7.7.6 16.6 8.3 19.7 1.8.7 3.7 1.1 5.7 1.1V80c-4.5 0-8.1-3.6-8.1-8.1 0-.9.2-1.8.5-2.6l-6.4-3zm28 4.7v1c0 7-5.1 12.8-12 13.8v-5.1c4-.9 6.9-4.4 7-8.6l5-1.1m.9-1l-6.9 1.6v.6c0 4-3 7.4-7 7.9v7c8.2-.5 14.5-7.5 14-15.7-.1-.5-.1-1-.1-1.4z"/><path class="st0" d="M2028.6 52.6l2.2 4.5c-2.6 1.5-4.8 3.6-6.4 6.1L2020 61c2-3.5 5-6.4 8.6-8.4m.5-1.4c-4.5 2.2-8.2 5.7-10.5 10.1l6.2 3.2c1.6-3.1 4.2-5.5 7.3-7l-3-6.3zm-1.1 33.7c2.8 2.4 6.3 3.8 10 4v5c-5.1-.2-9.9-2.2-13.7-5.5l3.7-3.5m0-1.3l-5.1 4.9c4.3 4.2 10.1 6.6 16.1 6.6v-7c-4.1-.1-8-1.7-11-4.5zm-5.5-7.5c.6 2.4 1.7 4.7 3.3 6.7l-3.6 3.6c-2.3-2.7-4-6-4.8-9.5l5.1-.8m.8-1.1l-6.9 1c.8 4.4 2.8 8.5 5.9 11.8l5-5c-2.1-2.2-3.5-4.9-4-7.8zm22.3 12.7l2.1 4.6c-2.1.9-4.4 1.5-6.7 1.7v-5c1.6-.3 3.1-.7 4.6-1.3m.5-1.3c-1.9.9-4 1.5-6.1 1.6v7c3.1-.1 6.2-.9 9-2.2l-2.9-6.4zm5.5-3l4 3c-1.4 1.7-3.1 3.1-5 4.3l-2.2-4.5c1.2-.8 2.3-1.8 3.2-2.8m-.1-1.4c-1.2 1.5-2.7 2.8-4.4 3.8l3 6.3c2.7-1.5 5-3.5 6.9-5.9l-5.5-4.2zm9.3-12.7c.1.9.2 1.8.2 2.7 0 4.2-1.2 8.3-3.4 11.8l-4.1-2.8c1.7-2.7 2.6-5.8 2.6-9 0-.5 0-1.1-.1-1.6l4.8-1.1m1.2-1.2l-6.9 1.5c.1.8.2 1.6.2 2.4 0 3.3-1 6.5-2.9 9.2l5.8 4c3.5-4.9 4.8-11.1 3.8-17.1z"/><path class="st2" d="M1967 48h48v48h-48z"/><g class="st98"><path class="st0" d="M2007 55.5L1992 72l21.3-5.5c-1-4.2-3.2-8-6.3-11zm-36.4 5.9L1991 72l15.1-17.3c-9.6-8.3-24.1-7.3-32.4 2.3-1.2 1.3-2.3 2.8-3.1 4.4zm-.7 1.5c-5 11.7.4 25.2 12 30.2 2.9 1.2 6 1.9 9.1 1.9V73l-21.1-10.1zM1992 73v22c12.7-.6 22.5-11.3 22-24 0-1-.1-2-.3-2.9L1992 73z"/></g><path class="st0" d="M2007.1 57c2.3 2.5 4 5.5 5 8.8l-17.1 4.4 12.1-13.2m0-1.5L1992 72l21.3-5.5c-1-4.2-3.2-8-6.2-11zM1991 50c5 0 9.8 1.7 13.7 4.8l-13.9 16L1972 61c3.9-6.8 11.2-11 19-11m0-1c-8.6 0-16.4 4.8-20.4 12.4L1991 72l15.1-17.3c-4.2-3.7-9.6-5.7-15.1-5.7zm-20.6 15.3l19.6 9.4V94c-12.1-.5-21.5-10.8-21-23 .1-2.3.6-4.6 1.4-6.7m-.5-1.4c-5 11.7.4 25.2 12 30.2 2.9 1.2 6 1.9 9.1 1.9V73l-21.1-10.1zm42.9 6.4c.1.9.2 1.8.2 2.7 0 11.4-8.7 20.9-20 21.9V73.8l19.8-4.5m.9-1.2L1992 73v22c12.7-.6 22.5-11.3 22-24-.1-1-.2-1.9-.3-2.9z"/><path class="st2" d="M2063 48h48v48h-48z"/><g class="st98"><path class="st0" d="M2064 73h11v22h-11zm12-13h11v13h-11zm12-11h10v11h-10zm11 11h11v24h-11z"/></g><path class="st0" d="M2074 74v20h-9V74h9m1-1h-11v22h11V73zm11-12v11h-9V61h9m1-1h-11v13h11V60zm10-10v9h-8v-9h8m1-1h-10v11h10V49zm11 12v22h-9V61h9m1-1h-11v24h11V60z"/><g><path class="st2" d="M2111 48h48v48h-48z"/><path d="M2157.9 96c-.2-1.9-.4-3.7-.6-5.5-.2-1.8-.5-3.7-.7-5.6-.5-4.1-1-5.3-1.6-9.2-.3-2-.6-4-1.1-5.8-.3-1.1-.6-1.2-.9-.1-.3 1.1-.5 2.1-.6 3.2-.1.4-.6 4-.7 4.9-.4 2.5-.6 5.2-1 7.7-.3 2.7-.6 5.3-1.1 7.8-.6 3.5-1.2 1.4-1.7-.9-.9-4.3-1.4-9-2.1-13.5-.2-1.9-.6-3.8-1.2-5.6-.5-1.4-1.1 1.4-1.3 2.4-.9 4-1.5 8.2-2.4 12.3-1.2 5.9-2 1.8-2.9-1.7-.6-2.5-1.2-5.1-1.9-7.6-.1-.6-.4-1.2-.8-1.8-1-.8-2.4 6.8-3 8.4-.8 2.2-1.4 4.8-2.8 2.8-2.8-4.5-2.6-6.6-6.2-4.4-1.6.7-3.1 1.4-4.5 2.4-.4.3-.9.5-1.4.7-1.4.2-1.6-.4-2.8-2-.8-1.2-1.7-4.4-2.4-5.9v-8.8c1.4 2.8 2.5 6.2 4.2 7.9.3.3.6.2.8-.3.3-.8.6-1.5.9-2.3.9-2.9 1.5-6.4 2.7-8.8.4-1 1-.5 1.4.3 1.1 2.1 2 4.9 3.1 6.7.9 1.6 1.6-1 2.1-2.6.7-2.8 1.5-5.7 2.5-8.4 1.3-3.3 3.6 6.9 5.1 7.4 1.3.4 3-9.9 4.3-11.8.7-1.1 1.5.7 2 1.8.8 1.5 2.4 7 3.4 5.7 1.5-3.1 2.2-8 3.6-11.2.7-1.8 1.5.2 2.1 1.4.8 1.5 2.4 7.4 3.5 5.7 1-1.9 1.8-3.9 2.4-5.9.6-1.8 1.1-3.7 1.7-5.7l.1.1c-.2 15.2 0 30.5-.2 45.8z" opacity=".2" fill="#2d2d2d"/><path class="st0" d="M2148.9 55.4c.2.3.3.6.4.8l.1.2c.2.3.4 1 .7 1.8 1.1 3 1.9 4.8 3.3 4.8.5 0 1-.3 1.3-.8 1-1.8 1.8-3.7 2.3-5.7h.1v24.7c-.1-.5-.2-1.1-.3-1.6-.2-1.1-.5-2.3-.8-4l-.1-.8c-.3-1.7-.6-3.5-1-5.1-.1-.5-.4-1.6-1.4-1.6-1 0-1.3 1.1-1.4 1.5-.2.8-.4 1.5-.5 2.3-.1.3-.1.7-.2 1s-.6 4-.7 5c-.2 1.2-.3 2.3-.4 3.5-.2 1.4-.3 2.8-.5 4.2-.3 2.4-.5 4.6-.9 6.6-.5-2.7-.9-5.5-1.3-8.2-.2-1.7-.5-3.4-.8-5l-.1-.5c-.2-1.8-.6-3.6-1.2-5.4-.1-.6-.7-1-1.3-1-1.2 0-1.5 1.5-1.9 3.1 0 .1-.1.3-.1.4-.5 2.3-1 4.7-1.4 7-.3 1.8-.7 3.6-1 5.4-.1.4-.2.8-.2 1-.2-.6-.4-1.4-.6-2l-.2-.8c-.2-.7-.3-1.4-.5-2.1-.4-1.8-.9-3.7-1.4-5.5-.2-.8-.5-1.5-.9-2.2l-.1-.1-.1-.1c-.2-.2-.5-.3-.8-.3-1.3 0-1.9 1.6-3 6.3-.3 1.2-.6 2.3-.8 2.8v.1l-.3.8c-.2.6-.4 1.2-.7 1.8-.6-1-1-1.8-1.4-2.5-1-1.9-1.8-3.2-3.4-3.2-.9.1-1.9.4-2.6.9-1.6.7-3.2 1.5-4.7 2.5-.3.2-.7.4-1 .5h.1c-.3 0-.4 0-1.1-1l-.4-.6c-.5-1-.9-2-1.3-3-.3-.9-.6-1.8-1-2.5v-4c.6 1.5 1.4 2.8 2.5 4 .3.3.6.5 1 .5.7 0 1.4-.5 1.6-1.2l.1-.3c.3-.7.5-1.4.8-2.1.3-1 .6-2.2.9-3.2.4-1.7.9-3.3 1.5-4.9.4.8.8 1.7 1.1 2.6.5 1.4 1.1 2.7 1.8 3.9.2.6.8 1 1.4 1 1.4 0 1.9-1.8 2.4-3.8.3-1 .6-2 .8-3 .4-1.7.9-3.3 1.5-4.9.4.8 1 2.1 1.3 3 1.1 2.7 1.7 4.1 2.6 4.5h.3c1.4 0 2-1.7 3.3-6.9.4-1.6.8-3.2 1.4-4.7.1.3.3.6.4.8l.1.3c.2.3.4 1 .7 1.7 1.1 3 1.9 4.8 3.2 4.8.4 0 .8-.2 1.1-.6l.1-.1V66c.9-1.9 1.5-3.9 2-6 .4-1.6.9-3.2 1.5-4.8m9.3-5.4c-.5 2-1.1 3.9-1.7 5.7-.6 2.1-1.4 4.1-2.4 6-.1.2-.2.3-.4.3-1 0-2.4-4.7-3.1-6-.4-.9-.9-2.2-1.5-2.2-.2 0-.4.2-.6.7-1.5 3.3-2.2 8.2-3.7 11.3-.1.1-.2.2-.3.2-1 0-2.4-4.6-3.1-5.9-.4-.9-.9-2.2-1.5-2.2-.2 0-.3.1-.5.4-1.3 1.9-3 11.9-4.3 11.9h-.1c-1.3-.5-3.2-8.1-4.5-8.1-.2 0-.4.2-.6.7-1 2.8-1.8 5.6-2.6 8.5-.4 1.2-.9 3.1-1.5 3.1-.2 0-.4-.1-.6-.5-1.1-1.9-2-4.7-3.2-6.8-.3-.5-.6-.9-.9-.9-.3 0-.4.2-.6.6-1.2 2.5-1.8 5.9-2.7 8.9-.3.8-.6 1.6-.9 2.3-.1.3-.3.5-.5.5-.1 0-.3-.1-.3-.2-1.7-1.7-2.8-5.1-4.2-7.9v9c.8 1.5 1.6 4.6 2.5 5.8 1.1 1.4 1.3 2 2.4 2h.4c.5-.2 1-.4 1.4-.7 1.4-.9 2.9-1.7 4.5-2.4.7-.5 1.4-.8 2.2-.9 1.5 0 1.9 2 4 5.3.3.5.6.7.9.7.8 0 1.3-1.9 1.9-3.5.6-1.6 1.8-8.5 2.8-8.5h.1c.4.6.6 1.2.7 1.8.7 2.5 1.2 5 1.9 7.5.6 2.2 1.1 4.6 1.8 4.6.4 0 .7-.8 1.2-3 .8-4.1 1.5-8.3 2.4-12.3.2-.8.6-2.7 1-2.7.1 0 .2.1.3.4.6 1.8 1 3.7 1.2 5.6.7 4.5 1.3 9.1 2.1 13.4.3 1.5.6 2.8 1 2.8s.5-.5.7-1.9c.5-2.5.8-5.2 1.1-7.8.4-2.5.6-5.1 1-7.7.1-1 .6-4.5.7-4.9.1-1.1.4-2.1.6-3.2.2-.5.3-.8.4-.8.1 0 .3.3.4.9.5 1.8.8 3.8 1.1 5.8.6 4 1.2 5.1 1.6 9.2.2 1.9.5 3.7.7 5.6.2 1.9.5 3.7.6 5.5h.4c.5-15.1.3-30.6.3-46z"/></g></g><g id="standard"><defs><path id="SVGID_1825_" d="M863 0h48v48h-48z"/></defs><clipPath id="SVGID_1826_"><use xlink:href="#SVGID_1825_" overflow="visible"/></clipPath><g clip-path="url(#SVGID_1826_)"><defs><path id="SVGID_1827_" d="M863 0h48v48h-48z"/></defs><clipPath id="SVGID_1828_"><use xlink:href="#SVGID_1827_" overflow="visible"/></clipPath><g clip-path="url(#SVGID_1828_)"><defs><path id="SVGID_1829_" d="M863 0h48v48h-48z"/></defs><clipPath id="SVGID_1830_"><use xlink:href="#SVGID_1829_" overflow="visible"/></clipPath><g opacity=".2" clip-path="url(#SVGID_1830_)"><defs><path id="SVGID_1831_" d="M863 1h47v46h-47z"/></defs><clipPath id="SVGID_1832_"><use xlink:href="#SVGID_1831_" overflow="visible"/></clipPath><path d="M910 10v16-16zm-8-9l-6 5-7 4-10-2-8-5-7 6v14l7 7 11.8-12.4L893 19l5-6 8-2 4-1V6l-8-5z" clip-path="url(#SVGID_1832_)" fill="#8959ab"/><path class="st2861" d="M870 29l1 1 11.6-12.2-1.8-.2L870 29zm40-19v16-16zm-14 3l-4.8 5.8 1.8.2 5-6 8-2 4-1V9l-14 4z"/><path d="M864 34l5-6-5-5v11zm42-23l-8 2-5 6-10.2-1.4-6.1 6.4 5.3 4 15-4 7 7 6-1V10l-4 1z" clip-path="url(#SVGID_1832_)" fill="#53a93f"/><path d="M910 37.1v9.8-9.8zM864 34v3l15 4 7-7 9 1 4-6 8 9 3-.9V30l-6 1-7-7-15 4-8-6-10 12z" clip-path="url(#SVGID_1832_)" fill="#e7c146"/><path class="st2861" d="M906.6 37.5l.4.5 1-.3v-.6l-1.4.4zm-29.2 3.1l1.6.4 6.8-6.8-1.8-.2-6.6 6.6zm15.7-5.8l1.9.2 3.1-4.7L897 29l-3.9 5.8z"/><path clip-path="url(#SVGID_1832_)" fill="#83beec" d="M907 38l-8-9-4 6-9-1-7 7-15-4v10h46v-9.9z"/></g></g><path d="M910 26V10v16zM896 6l-7 4-10-2-8-5-7 6v14l1 1V9.5l6.1-5.2 7.4 4.6.2.1h.2l10 2 .4.1.3-.2 7-4h.1l.1-.1 5.4-4.5 6.9 4.3v3.7l1-.2V6l-8-5-6.1 5z" clip-path="url(#SVGID_1828_)" fill="#8959ab"/><path d="M864 34l1-1.1v-7.5l3.5 3.5.7-.8L864 23v11zm46-24l-4 1-8 2-5 6-10.2-1.4-6.4 6.7.8.6 5.9-6.2 9.6 1.3.6.1.4-.4 4.8-5.7 7.7-1.9 2.8-.7v18.8l1-.2V10z" clip-path="url(#SVGID_1828_)" fill="#53a93f"/><path clip-path="url(#SVGID_1828_)" fill="#e7c146" d="M864 34v3l1 .3v-2.9l9.2-11 7.2 5.4.4.3.5-.1 14.4-3.9 6.6 6.6.4.4.5-.1 4.8-.8v6.2l1-.3V30l-6 1-7-7-15 4-8-6z"/><path d="M895.8 35.6l3.3-4.9 7.1 8 .4.5.6-.2 1.7-.5V46h-44v-7.7l13.7 3.7.6.1.4-.4 6.7-6.7 8.5.9.6.1.4-.4zm-.8-.6l-9-1-7 7-15-4v10h46v-9.9l-3 .9-8-9-4 6z" clip-path="url(#SVGID_1828_)" fill="#83beec"/></g><defs><path id="SVGID_1833_" d="M911 0h48v48h-48z"/></defs><clipPath id="SVGID_1834_"><use xlink:href="#SVGID_1833_" overflow="visible"/></clipPath><g clip-path="url(#SVGID_1834_)"><defs><path id="SVGID_1835_" d="M911 0h48v48h-48z"/></defs><clipPath id="SVGID_1836_"><use xlink:href="#SVGID_1835_" overflow="visible"/></clipPath><g clip-path="url(#SVGID_1836_)"><defs><path id="SVGID_1837_" d="M911 0h48v48h-48z"/></defs><clipPath id="SVGID_1838_"><use xlink:href="#SVGID_1837_" overflow="visible"/></clipPath><g opacity=".2" clip-path="url(#SVGID_1838_)"><defs><path id="SVGID_1839_" d="M912 1h46v46h-46z"/></defs><clipPath id="SVGID_1840_"><use xlink:href="#SVGID_1839_" overflow="visible"/></clipPath><path clip-path="url(#SVGID_1840_)" fill="#53a93f" d="M927 41l5-9 10.9 1.2L947 27l8 9 3-1V19l-4 4-13 4-10.2-1.4L917 31l-5-2v15l7-6z"/><path clip-path="url(#SVGID_1840_)" fill="#83beec" d="M955 38l-8-9-4 6-11-1-5 9-8-3-7 6v1h46v-9.9z"/><path clip-path="url(#SVGID_1840_)" fill="#e7c146" d="M931 24l10 1 13-4 4-4v-1l-4 3-8-2-7 2-14-7-7 9-6 1.4V27l5 2z"/><path clip-path="url(#SVGID_1840_)" fill="#8959ab" d="M925 10l14 7 7-2 8 2 4-3V5.3L950 1l-6 5-7 4-10-2-8-5-7 6v12l6-2z"/></g></g><path d="M947.1 30.6l7.1 8 .4.5.6-.2 1.7-.5V46h-43.5l5.7-4.9 7.4 2.8.8.3.4-.8 4.7-8.4 10.4.9.6.1.3-.5 3.4-4.9zM947 29l-4 6-11-1-5 9-8-3-7 6v1h46v-9.9l-3 .9-8-9z" clip-path="url(#SVGID_1836_)" fill="#83beec"/><path d="M957 21.4v12.9l-1.7.6-7.6-8.5-.3-.3 6.8-2.1.2-.1.2-.2 2.4-2.3zm-10.8 5.1l-3.8 5.7-10.3-1.2-.7-.1-.3.6-4.6 8.2-7.2-2.7-.6-.2-.4.4-5.3 4.6V30.5l3.6 1.5.4.1.4-.1 13.6-5.3 9.9 1.4h.2l.2-.1 4.9-1.5M958 19l-4 4-13 4-10.2-1.4L917 31l-5-2v15l7-6 8 3 5-9 10.9 1.2L947 27l8 9 3-1V19z" clip-path="url(#SVGID_1836_)" fill="#53a93f"/><path d="M925.3 13.3l13.3 6.6.3.2.4-.1 6.7-2 7.6 1.9-.2.2-12.5 3.9-9.8-1h-.2l-.2.1-13.7 4.8-4-1.6v-3.2l5.2-1.2.3-.1.2-.3 6.6-8.2zM925 12l-7 9-6 1.4V27l5 2 14-5 10 1 13-4 4-4v-1l-4 3-8-2-7 2-14-7z" clip-path="url(#SVGID_1836_)" fill="#e7c146"/><path d="M950.1 2.2l6.9 3.7v7.6l-3.2 2.4-7.5-1.9h-.3l-.3.1-6.6 1.9-13.7-6.8-.7-.4-.5.6-6.8 8.8-4.4 1.5V9.5l6.1-5.2 7.4 4.6.2.1h.2l10 2 .4.1.3-.2 7-4h.1l.1-.1 5.3-4.6zM950 1l-6 5-7 4-10-2-8-5-7 6v12l6-2 7-9 14 7 7-2 8 2 4-3V5.3L950 1z" clip-path="url(#SVGID_1836_)" fill="#8959ab"/></g><defs><path id="SVGID_1841_" d="M959 0h48v48h-48z"/></defs><clipPath id="SVGID_1842_"><use xlink:href="#SVGID_1841_" overflow="visible"/></clipPath><g clip-path="url(#SVGID_1842_)"><defs><path id="SVGID_1843_" d="M959 0h48v48h-48z"/></defs><clipPath id="SVGID_1844_"><use xlink:href="#SVGID_1843_" overflow="visible"/></clipPath><g clip-path="url(#SVGID_1844_)"><defs><path id="SVGID_1845_" d="M959 0h48v48h-48z"/></defs><clipPath id="SVGID_1846_"><use xlink:href="#SVGID_1845_" overflow="visible"/></clipPath><g opacity=".8" clip-path="url(#SVGID_1846_)"><defs><path id="SVGID_1847_" d="M960 1h46v46h-46z"/></defs><clipPath id="SVGID_1848_"><use xlink:href="#SVGID_1847_" overflow="visible"/></clipPath><path d="M965 39V1m-5 33h6m4-26h-5" clip-path="url(#SVGID_1848_)" fill="none" stroke="#83beec" stroke-width="2" stroke-miterlimit="10"/><path d="M977 47V6m-5 7h5m0 4h5" stroke="#8959ab" clip-path="url(#SVGID_1848_)" fill="none" stroke-width="2" stroke-miterlimit="10"/><path d="M989 29V1m5 3h-5m-5 21h5" stroke="#e7c146" clip-path="url(#SVGID_1848_)" fill="none" stroke-width="2" stroke-miterlimit="10"/><path d="M1006 4h-5v33m-5-9h5" stroke="#53a93f" clip-path="url(#SVGID_1848_)" fill="none" stroke-width="2" stroke-miterlimit="10"/></g></g></g><defs><path id="SVGID_1849_" d="M1007 0h48v48h-48z"/></defs><clipPath id="SVGID_1850_"><use xlink:href="#SVGID_1849_" overflow="visible"/></clipPath><g clip-path="url(#SVGID_1850_)"><defs><path id="SVGID_1851_" d="M1007 0h48v48h-48z"/></defs><clipPath id="SVGID_1852_"><use xlink:href="#SVGID_1851_" overflow="visible"/></clipPath><g clip-path="url(#SVGID_1852_)"><defs><path id="SVGID_1853_" d="M1007 0h48v48h-48z"/></defs><clipPath id="SVGID_1854_"><use xlink:href="#SVGID_1853_" overflow="visible"/></clipPath><g opacity=".2" clip-path="url(#SVGID_1854_)"><defs><path id="SVGID_1855_" d="M1008 1h46v46h-46z"/></defs><clipPath id="SVGID_1856_"><use xlink:href="#SVGID_1855_" overflow="visible"/></clipPath><path class="st2890" d="M1022 40c0-3.9-3.1-7-7-7s-7 3.1-7 7 3.1 7 7 7 7-3.1 7-7"/><path class="st2891" d="M1026 13.5c0 4.1-3.4 7.5-7.5 7.5s-7.5-3.4-7.5-7.5 3.4-7.5 7.5-7.5 7.5 3.4 7.5 7.5"/><path class="st2892" d="M1038 19c0 4.4-3.6 8-8 8s-8-3.6-8-8 3.6-8 8-8 8 3.6 8 8"/><path class="st2893" d="M1053 34.5c0 5.2-4.3 9.5-9.5 9.5-5.3 0-9.5-4.2-9.5-9.5 0-5.2 4.3-9.5 9.5-9.5s9.5 4.2 9.5 9.5"/><path class="st2890" d="M1043 6.5c0 3 2.5 5.5 5.5 5.5s5.5-2.5 5.5-5.5-2.5-5.5-5.5-5.5-5.5 2.5-5.5 5.5"/><path class="st2891" d="M1045 11.5c0 1.9 1.6 3.5 3.5 3.5s3.5-1.6 3.5-3.5-1.6-3.5-3.5-3.5-3.5 1.6-3.5 3.5M1022 36c0 2.2 1.8 4 4 4s4-1.8 4-4-1.8-4-4-4-4 1.8-4 4"/><path class="st2892" d="M1025 32c0 1.7 1.3 3 3 3s3-1.3 3-3-1.3-3-3-3-3 1.3-3 3m1-27c0 1.7 1.3 3 3 3s3-1.3 3-3-1.3-3-3-3-3 1.3-3 3"/><path class="st2893" d="M1042 20c0 1.7 1.3 3 3 3s3-1.3 3-3-1.3-3-3-3-3 1.3-3 3"/></g><g opacity=".8" clip-path="url(#SVGID_1854_)"><defs><path id="SVGID_1857_" d="M1008 1h46v46h-46z"/></defs><clipPath id="SVGID_1858_"><use xlink:href="#SVGID_1857_" overflow="visible"/></clipPath><path class="st2895" d="M1015 34c3.3 0 6 2.7 6 6s-2.7 6-6 6-6-2.7-6-6 2.7-6 6-6m0-1c-3.9 0-7 3.1-7 7s3.1 7 7 7 7-3.1 7-7-3.1-7-7-7"/><path class="st2896" d="M1018.5 7c3.6 0 6.5 2.9 6.5 6.5s-2.9 6.5-6.5 6.5-6.5-2.9-6.5-6.5 2.9-6.5 6.5-6.5m0-1c-4.1 0-7.5 3.4-7.5 7.5s3.4 7.5 7.5 7.5 7.5-3.4 7.5-7.5-3.4-7.5-7.5-7.5"/><path class="st2897" d="M1030 12c3.9 0 7 3.1 7 7s-3.1 7-7 7-7-3.1-7-7 3.1-7 7-7m0-1c-4.4 0-8 3.6-8 8s3.6 8 8 8 8-3.6 8-8-3.6-8-8-8"/><path class="st2898" d="M1043.5 26c4.7 0 8.5 3.8 8.5 8.5s-3.8 8.5-8.5 8.5-8.5-3.8-8.5-8.5 3.8-8.5 8.5-8.5m0-1c-5.3 0-9.5 4.2-9.5 9.5 0 5.2 4.3 9.5 9.5 9.5s9.5-4.2 9.5-9.5-4.3-9.5-9.5-9.5"/><path class="st2895" d="M1048.5 2c2.5 0 4.5 2 4.5 4.5s-2 4.5-4.5 4.5-4.5-2-4.5-4.5 2-4.5 4.5-4.5m0-1c-3 0-5.5 2.5-5.5 5.5s2.5 5.5 5.5 5.5 5.5-2.5 5.5-5.5-2.5-5.5-5.5-5.5"/><path class="st2896" d="M1048.5 9c1.4 0 2.5 1.1 2.5 2.5s-1.1 2.5-2.5 2.5-2.5-1.1-2.5-2.5 1.1-2.5 2.5-2.5m0-1c-1.9 0-3.5 1.6-3.5 3.5s1.6 3.5 3.5 3.5 3.5-1.6 3.5-3.5-1.6-3.5-3.5-3.5M1026 33c1.7 0 3 1.3 3 3s-1.3 3-3 3-3-1.3-3-3 1.3-3 3-3m0-1c-2.2 0-4 1.8-4 4s1.8 4 4 4 4-1.8 4-4-1.8-4-4-4"/><path class="st2897" d="M1028 30c1.1 0 2 .9 2 2s-.9 2-2 2-2-.9-2-2 .9-2 2-2m0-1c-1.7 0-3 1.3-3 3s1.3 3 3 3 3-1.3 3-3-1.3-3-3-3m1-26c1.1 0 2 .9 2 2s-.9 2-2 2-2-.9-2-2 .9-2 2-2m0-1c-1.7 0-3 1.3-3 3s1.3 3 3 3 3-1.3 3-3-1.3-3-3-3"/><path class="st2898" d="M1045 18c1.1 0 2 .9 2 2s-.9 2-2 2-2-.9-2-2 .9-2 2-2m0-1c-1.7 0-3 1.3-3 3s1.3 3 3 3 3-1.3 3-3-1.3-3-3-3"/></g></g></g><defs><path id="SVGID_1859_" d="M1055 0h48v48h-48z"/></defs><clipPath id="SVGID_1860_"><use xlink:href="#SVGID_1859_" overflow="visible"/></clipPath><g clip-path="url(#SVGID_1860_)"><defs><path id="SVGID_1861_" d="M1055 0h48v48h-48z"/></defs><clipPath id="SVGID_1862_"><use xlink:href="#SVGID_1861_" overflow="visible"/></clipPath><g class="st2900"><defs><path id="SVGID_1863_" d="M1055 0h48v48h-48z"/></defs><clipPath id="SVGID_1864_"><use xlink:href="#SVGID_1863_" overflow="visible"/></clipPath><g opacity=".2" clip-path="url(#SVGID_1864_)"><defs><path id="SVGID_1865_" d="M1056 11h46v22h-46z"/></defs><clipPath id="SVGID_1866_"><use xlink:href="#SVGID_1865_" overflow="visible"/></clipPath><path clip-path="url(#SVGID_1866_)" fill="#83beec" d="M1056 19h11v14h-11z"/><path clip-path="url(#SVGID_1866_)" fill="#8959ab" d="M1068 11h10v9h-10z"/><path clip-path="url(#SVGID_1866_)" fill="#e7c146" d="M1079 11h11v22h-11z"/><path clip-path="url(#SVGID_1866_)" fill="#53a93f" d="M1091 21h11v12h-11z"/></g></g><path d="M1066 32h-9V20h9v12zm1-13h-11v14h11V19z" clip-path="url(#SVGID_1862_)" fill="#83beec"/><path d="M1077 19h-8v-7h8v7zm1-8h-10v9h10v-9z" clip-path="url(#SVGID_1862_)" fill="#8959ab"/><path d="M1089 32h-9V12h9v20zm1-21h-11v22h11V11z" clip-path="url(#SVGID_1862_)" fill="#e7c146"/><path d="M1101 32h-9V22h9v10zm1-11h-11v12h11V21z" clip-path="url(#SVGID_1862_)" fill="#53a93f"/><path class="st2910" d="M1061.5 19V9"/><g class="st2900"><defs><path id="SVGID_1867_" d="M1055 0h48v48h-48z"/></defs><clipPath id="SVGID_1868_"><use xlink:href="#SVGID_1867_" overflow="visible"/></clipPath><path clip-path="url(#SVGID_1868_)" fill="none" stroke="#8959ab" stroke-miterlimit="10" d="M1073.5 11V1"/></g><path class="st2912" d="M1084.5 5v6"/><g class="st2900"><defs><path id="SVGID_1869_" d="M1055 0h48v48h-48z"/></defs><clipPath id="SVGID_1870_"><use xlink:href="#SVGID_1869_" overflow="visible"/></clipPath><path clip-path="url(#SVGID_1870_)" fill="none" stroke="#53a93f" stroke-miterlimit="10" d="M1096.5 1v20"/></g><path clip-path="url(#SVGID_1862_)" fill="none" stroke="#8959ab" stroke-miterlimit="10" d="M1073.5 33V19"/><path class="st2912" d="M1084.5 33v6"/><g class="st2900"><defs><path id="SVGID_1871_" d="M1055 0h48v48h-48z"/></defs><clipPath id="SVGID_1872_"><use xlink:href="#SVGID_1871_" overflow="visible"/></clipPath><path clip-path="url(#SVGID_1872_)" fill="none" stroke="#53a93f" stroke-miterlimit="10" d="M1096.5 33v14"/></g><path class="st2910" d="M1061.5 43V33"/></g><defs><path id="SVGID_1873_" d="M1103 0h48v48h-48z"/></defs><clipPath id="SVGID_1874_"><use xlink:href="#SVGID_1873_" overflow="visible"/></clipPath><g clip-path="url(#SVGID_1874_)"><defs><path id="SVGID_1875_" d="M1103 0h48v48h-48z"/></defs><clipPath id="SVGID_1876_"><use xlink:href="#SVGID_1875_" overflow="visible"/></clipPath><g clip-path="url(#SVGID_1876_)"><defs><path id="SVGID_1877_" d="M1103 0h48v48h-48z"/></defs><clipPath id="SVGID_1878_"><use xlink:href="#SVGID_1877_" overflow="visible"/></clipPath><g opacity=".8" clip-path="url(#SVGID_1878_)"><defs><path id="SVGID_1879_" d="M1103.7 2.4h46.6v42.1h-46.6z"/></defs><clipPath id="SVGID_1880_"><use xlink:href="#SVGID_1879_" overflow="visible"/></clipPath><path clip-path="url(#SVGID_1880_)" fill="none" stroke="#8959ab" stroke-miterlimit="10" d="M1150 7.3l-8-4.3-6 5-7 4-10-2-8 3-7 6"/><path clip-path="url(#SVGID_1880_)" fill="none" stroke="#53a93f" stroke-miterlimit="10" d="M1150 13l-4-2-8 2-5 6-10.2 2.6L1107 31l-3-2"/><path clip-path="url(#SVGID_1880_)" fill="none" stroke="#e7c146" stroke-miterlimit="10" d="M1150 30l-6 1-7-7-15 4-8-5.4-10 1.4"/><path clip-path="url(#SVGID_1880_)" fill="none" stroke="#83beec" stroke-miterlimit="10" d="M1150 41.1l-3 .9-8-11-4 8-9-1-7 5-15 1"/></g></g></g><defs><path id="SVGID_1881_" d="M1151 0h48v48h-48z"/></defs><clipPath id="SVGID_1882_"><use xlink:href="#SVGID_1881_" overflow="visible"/></clipPath><g clip-path="url(#SVGID_1882_)"><defs><path id="SVGID_1883_" d="M1151 0h48v48h-48z"/></defs><clipPath id="SVGID_1884_"><use xlink:href="#SVGID_1883_" overflow="visible"/></clipPath><g clip-path="url(#SVGID_1884_)"><defs><path id="SVGID_1885_" d="M1151 0h48v48h-48z"/></defs><clipPath id="SVGID_1886_"><use xlink:href="#SVGID_1885_" overflow="visible"/></clipPath><g opacity=".9" clip-path="url(#SVGID_1886_)"><defs><path id="SVGID_1887_" d="M1152 22h46v1h-46z"/></defs><clipPath id="SVGID_1888_"><use xlink:href="#SVGID_1887_" overflow="visible"/></clipPath><path clip-path="url(#SVGID_1888_)" fill="none" stroke="#83beec" stroke-miterlimit="10" d="M1152 22.5h46"/></g></g></g><defs><path id="SVGID_1889_" d="M1199 0h48v48h-48z"/></defs><clipPath id="SVGID_1890_"><use xlink:href="#SVGID_1889_" overflow="visible"/></clipPath><g clip-path="url(#SVGID_1890_)"><defs><path id="SVGID_1891_" d="M1199 0h48v48h-48z"/></defs><clipPath id="SVGID_1892_"><use xlink:href="#SVGID_1891_" overflow="visible"/></clipPath><g clip-path="url(#SVGID_1892_)"><defs><path id="SVGID_1893_" d="M1199 0h48v48h-48z"/></defs><clipPath id="SVGID_1894_"><use xlink:href="#SVGID_1893_" overflow="visible"/></clipPath><g clip-path="url(#SVGID_1894_)"><text transform="matrix(1.0037 0 0 1 1230.564 19.027)" class="st2930 st2931 st2932">Σ</text></g><g opacity=".9" clip-path="url(#SVGID_1894_)"><defs><path id="SVGID_1895_" d="M1200 22h46v1h-46z"/></defs><clipPath id="SVGID_1896_"><use xlink:href="#SVGID_1895_" overflow="visible"/></clipPath><path clip-path="url(#SVGID_1896_)" fill="none" stroke="#83beec" stroke-miterlimit="10" d="M1200 22.5h46"/></g></g></g><defs><path id="SVGID_1897_" d="M1295 0h48v48h-48z"/></defs><clipPath id="SVGID_1898_"><use xlink:href="#SVGID_1897_" overflow="visible"/></clipPath><g clip-path="url(#SVGID_1898_)"><defs><path id="SVGID_1899_" d="M1295 0h48v48h-48z"/></defs><clipPath id="SVGID_1900_"><use xlink:href="#SVGID_1899_" overflow="visible"/></clipPath><g clip-path="url(#SVGID_1900_)"><defs><path id="SVGID_1901_" d="M1295 0h48v48h-48z"/></defs><clipPath id="SVGID_1902_"><use xlink:href="#SVGID_1901_" overflow="visible"/></clipPath><g opacity=".9" clip-path="url(#SVGID_1902_)"><defs><path id="SVGID_1903_" d="M1295.9 18h46.3v13h-46.3z"/></defs><clipPath id="SVGID_1904_"><use xlink:href="#SVGID_1903_" overflow="visible"/></clipPath><path clip-path="url(#SVGID_1904_)" fill="none" stroke="#83beec" stroke-miterlimit="10" d="M1296 18.5l46 12"/></g><g clip-path="url(#SVGID_1902_)"><text transform="matrix(1.0037 0 0 1 1326.564 19.027)" class="st2930 st2931 st2932">Σ</text></g></g></g><defs><path id="SVGID_1905_" d="M1343 0h48v48h-48z"/></defs><clipPath id="SVGID_1906_"><use xlink:href="#SVGID_1905_" overflow="visible"/></clipPath><g clip-path="url(#SVGID_1906_)"><defs><path id="SVGID_1907_" d="M1343 0h48v48h-48z"/></defs><clipPath id="SVGID_1908_"><use xlink:href="#SVGID_1907_" overflow="visible"/></clipPath><g clip-path="url(#SVGID_1908_)"><defs><path id="SVGID_1909_" d="M1343 0h48v48h-48z"/></defs><clipPath id="SVGID_1910_"><use xlink:href="#SVGID_1909_" overflow="visible"/></clipPath><g opacity=".2" clip-path="url(#SVGID_1910_)"><defs><path id="SVGID_1911_" d="M1344 1h46v46h-46z"/></defs><clipPath id="SVGID_1912_"><use xlink:href="#SVGID_1911_" overflow="visible"/></clipPath><path d="M1383 7.5l-6.8 7.4c1.6 1.7 2.8 3.7 3.3 6.1l9.7-2.5c-.9-4.2-3.1-8-6.2-11" clip-path="url(#SVGID_1912_)" fill="#e7c146"/><path d="M1346.6 13.4l8.9 4.6c2.2-4.2 6.5-7 11.5-7 3.3 0 6.2 1.2 8.5 3.2l6.6-7.5c-4-3.5-9.3-5.6-15.1-5.6-8.9-.1-16.6 4.9-20.4 12.3" clip-path="url(#SVGID_1912_)" fill="#8959ab"/><path d="M1354 24c0-1.7.3-3.3.9-4.8l-9-4.3c-1.2 2.8-1.9 5.9-1.9 9.1 0 12.7 10.3 23 23 23V37c-7.2 0-13-5.8-13-13" clip-path="url(#SVGID_1912_)" fill="#83beec"/><path d="M1379.9 22.3c.1.6.1 1.1.1 1.7 0 6.8-5.3 12.4-12 12.9v10c12.2-.5 22-10.6 22-23 0-1.3-.1-2.6-.3-3.9l-9.8 2.3z" clip-path="url(#SVGID_1912_)" fill="#53a93f"/></g><path d="M1383.1 9c2.3 2.5 4.1 5.5 5 8.8l-7.8 2c-.6-1.8-1.5-3.4-2.7-4.9l5.5-5.9m-.1-1.5l-6.8 7.4c1.6 1.7 2.8 3.7 3.3 6.1l9.7-2.5c-.9-4.2-3.1-8-6.2-11" clip-path="url(#SVGID_1910_)" fill="#e7c146"/><path d="M1367 2c5 0 9.8 1.7 13.7 4.8l-5.3 6.1C1373 11 1370 10 1367 10c-4.9 0-9.4 2.5-11.9 6.7L1348 13c3.9-6.8 11.1-11 19-11m0-1c-8.9 0-16.6 5-20.4 12.4l8.9 4.6c2.2-4.2 6.5-7 11.5-7 3.3 0 6.2 1.2 8.5 3.2l6.6-7.5C1378 3.1 1372.8 1 1367 1" clip-path="url(#SVGID_1910_)" fill="#8959ab"/><path d="M1346.4 16.3l7.3 3.5c-.4 1.4-.7 2.8-.7 4.3 0 7.4 5.7 13.4 13 14v8c-11.7-.5-21-10.2-21-22 0-2.8.5-5.4 1.4-7.8m-.5-1.4c-1.2 2.8-1.9 5.9-1.9 9.1 0 12.7 10.3 23 23 23V37c-7.2 0-13-5.8-13-13 0-1.7.3-3.3.9-4.8l-9-4.3z" clip-path="url(#SVGID_1910_)" fill="#83beec"/><path d="M1388.8 21.3c.1.9.2 1.8.2 2.7 0 11.5-8.7 20.9-20 21.9v-8.1c6.8-1 12-6.9 12-13.8v-.9l7.8-1.8m.9-1.2l-9.8 2.2c.1.6.1 1.1.1 1.7 0 6.8-5.3 12.4-12 12.9v10c12.2-.5 22-10.6 22-23 0-1.2-.1-2.5-.3-3.8" clip-path="url(#SVGID_1910_)" fill="#53a93f"/></g></g><defs><path id="SVGID_1913_" d="M1391 0h48v48h-48z"/></defs><clipPath id="SVGID_1914_"><use xlink:href="#SVGID_1913_" overflow="visible"/></clipPath><g clip-path="url(#SVGID_1914_)"><defs><path id="SVGID_1915_" d="M1391 0h48v48h-48z"/></defs><clipPath id="SVGID_1916_"><use xlink:href="#SVGID_1915_" overflow="visible"/></clipPath><g clip-path="url(#SVGID_1916_)"><defs><path id="SVGID_1917_" d="M1391 0h48v48h-48z"/></defs><clipPath id="SVGID_1918_"><use xlink:href="#SVGID_1917_" overflow="visible"/></clipPath><g opacity=".2" clip-path="url(#SVGID_1918_)"><defs><path id="SVGID_1919_" d="M1392 1h46v46h-46z"/></defs><clipPath id="SVGID_1920_"><use xlink:href="#SVGID_1919_" overflow="visible"/></clipPath><path clip-path="url(#SVGID_1920_)" fill="#53a93f" d="M1410 39h10v8h-10z"/><path clip-path="url(#SVGID_1920_)" fill="#e7c146" d="M1420.4 38l6.4-13h-23.6l6.4 13z"/><path clip-path="url(#SVGID_1920_)" fill="#83beec" d="M1427.2 24l8.4-17h-41.2l8.4 17z"/><path clip-path="url(#SVGID_1920_)" fill="#8959ab" d="M1436 6l2-4V1h-46v1l2 4z"/></g></g><path d="M1419 46h-8v-6h8v6zm1-7h-10v8h10v-8z" clip-path="url(#SVGID_1916_)" fill="#53a93f"/><path d="M1425.2 26l-5.4 11h-9.6l-5.4-11h20.4zm1.6-1h-23.5l6.4 13h10.8l6.3-13z" clip-path="url(#SVGID_1916_)" fill="#e7c146"/><path d="M1434 8l-7.3 15h-23.2L1396 8h38zm1.6-1h-41.1l8.3 17h24.5l8.3-17z" clip-path="url(#SVGID_1916_)" fill="#83beec"/><path d="M1436.9 2l-1.5 3h-40.8l-1.5-3h43.8zm1.1-1h-46v1l2 4h42.1l2-4V1z" clip-path="url(#SVGID_1916_)" fill="#8959ab"/></g><defs><path id="SVGID_1921_" d="M1439 0h48v48h-48z"/></defs><clipPath id="SVGID_1922_"><use xlink:href="#SVGID_1921_" overflow="visible"/></clipPath><g clip-path="url(#SVGID_1922_)"><defs><path id="SVGID_1923_" d="M1439 0h48v48h-48z"/></defs><clipPath id="SVGID_1924_"><use xlink:href="#SVGID_1923_" overflow="visible"/></clipPath><g clip-path="url(#SVGID_1924_)"><defs><path id="SVGID_1925_" d="M1439 0h48v48h-48z"/></defs><clipPath id="SVGID_1926_"><use xlink:href="#SVGID_1925_" overflow="visible"/></clipPath><g opacity=".2" clip-path="url(#SVGID_1926_)"><defs><path id="SVGID_1927_" d="M1439 1h47v47h-47z"/></defs><clipPath id="SVGID_1928_"><use xlink:href="#SVGID_1927_" overflow="visible"/></clipPath><path class="st2965" d="M1439 43h5v5h-5zm6 0h5v5h-5zm6 0h5v5h-5zm6 0h5v5h-5zm6 0h5v5h-5zm6 0h5v5h-5zm6 0h5v5h-5zm6 0h5v5h-5zm-42-6h5v5h-5zm6 0h5v5h-5z"/><path class="st2966" d="M1451 37h5v5h-5zm6 0h5v5h-5zm6 0h5v5h-5zm6 0h5v5h-5z"/><path class="st2965" d="M1475 37h5v5h-5zm6 0h5v5h-5zm-42-6h5v5h-5z"/><path class="st2966" d="M1445 31h5v5h-5zm6 0h5v5h-5z"/><path class="st2967" d="M1457 31h5v5h-5zm6 0h5v5h-5z"/><path class="st2966" d="M1469 31h5v5h-5zm6 0h5v5h-5z"/><path class="st2965" d="M1481 31h5v5h-5z"/><path class="st2966" d="M1439 25h5v5h-5zm6 0h5v5h-5z"/><path class="st2967" d="M1451 25h5v5h-5z"/><path class="st2968" d="M1457 25h5v5h-5zm6 0h5v5h-5z"/><path class="st2967" d="M1469 25h5v5h-5z"/><path class="st2966" d="M1475 25h5v5h-5zm6 0h5v5h-5z"/><path class="st2965" d="M1439 1h5v5h-5zm6 0h5v5h-5zm6 0h5v5h-5zm6 0h5v5h-5zm6 0h5v5h-5zm6 0h5v5h-5zm6 0h5v5h-5zm6 0h5v5h-5zm-42 6h5v5h-5zm6 0h5v5h-5z"/><path class="st2966" d="M1451 7h5v5h-5zm6 0h5v5h-5zm6 0h5v5h-5zm6 0h5v5h-5z"/><path class="st2965" d="M1475 7h5v5h-5zm6 0h5v5h-5zm-42 6h5v5h-5z"/><path class="st2966" d="M1445 13h5v5h-5zm6 0h5v5h-5z"/><path class="st2967" d="M1457 13h5v5h-5zm6 0h5v5h-5z"/><path class="st2966" d="M1469 13h5v5h-5zm6 0h5v5h-5z"/><path class="st2965" d="M1481 13h5v5h-5z"/><path class="st2966" d="M1439 19h5v5h-5zm6 0h5v5h-5z"/><path class="st2967" d="M1451 19h5v5h-5z"/><path class="st2968" d="M1457 19h5v5h-5zm6 0h5v5h-5z"/><path class="st2967" d="M1469 19h5v5h-5z"/><path class="st2966" d="M1475 19h5v5h-5zm6 0h5v5h-5z"/></g></g><path class="st2969" d="M1440 44h3v3h-3v-3zm-1 4h5v-5h-5v5zm7-4h3v3h-3v-3zm-1 4h5v-5h-5v5zm7-4h3v3h-3v-3zm-1 4h5v-5h-5v5zm7-4h3v3h-3v-3zm-1 4h5v-5h-5v5zm7-4h3v3h-3v-3zm-1 4h5v-5h-5v5zm7-4h3v3h-3v-3zm-1 4h5v-5h-5v5zm7-4h3v3h-3v-3zm-1 4h5v-5h-5v5zm7-4h3v3h-3v-3zm-1 4h5v-5h-5v5zm-41-10h3v3h-3v-3zm-1 4h5v-5h-5v5zm10-1h-3v-3h3v3zm1-4h-5v5h5v-5z"/><path class="st2970" d="M1455 41h-3v-3h3v3zm1-4h-5v5h5v-5zm5 4h-3v-3h3v3zm1-4h-5v5h5v-5zm5 4h-3v-3h3v3zm1-4h-5v5h5v-5zm5 4h-3v-3h3v3zm1-4h-5v5h5v-5z"/><path class="st2969" d="M1479 41h-3v-3h3v3zm1-4h-5v5h5v-5zm5 4h-3v-3h3v3zm1-4h-5v5h5v-5zm-46-5h3v3h-3v-3zm-1 4h5v-5h-5v5z"/><path class="st2970" d="M1449 35h-3v-3h3v3zm1-4h-5v5h5v-5zm5 4h-3v-3h3v3zm1-4h-5v5h5v-5z"/><path class="st2971" d="M1461 35h-3v-3h3v3zm1-4h-5v5h5v-5zm5 4h-3v-3h3v3zm1-4h-5v5h5v-5z"/><path class="st2970" d="M1473 35h-3v-3h3v3zm1-4h-5v5h5v-5zm5 4h-3v-3h3v3zm1-4h-5v5h5v-5z"/><path class="st2969" d="M1485 35h-3v-3h3v3zm1-4h-5v5h5v-5z"/><path class="st2970" d="M1440 26h3v3h-3v-3zm-1 4h5v-5h-5v5zm10-1h-3v-3h3v3zm1-4h-5v5h5v-5z"/><path class="st2971" d="M1455 29h-3v-3h3v3zm1-4h-5v5h5v-5z"/><path class="st2972" d="M1461 29h-3v-3h3v3zm1-4h-5v5h5v-5zm5 4h-3v-3h3v3zm1-4h-5v5h5v-5z"/><path class="st2971" d="M1473 29h-3v-3h3v3zm1-4h-5v5h5v-5z"/><path class="st2970" d="M1479 29h-3v-3h3v3zm1-4h-5v5h5v-5zm5 4h-3v-3h3v3zm1-4h-5v5h5v-5z"/><path class="st2969" d="M1440 2h3v3h-3V2zm-1 4h5V1h-5v5zm10-1h-3V2h3v3zm1-4h-5v5h5V1zm5 4h-3V2h3v3zm1-4h-5v5h5V1zm5 4h-3V2h3v3zm1-4h-5v5h5V1zm5 4h-3V2h3v3zm1-4h-5v5h5V1zm5 4h-3V2h3v3zm1-4h-5v5h5V1zm5 4h-3V2h3v3zm1-4h-5v5h5V1zm5 4h-3V2h3v3zm1-4h-5v5h5V1zm-46 7h3v3h-3V8zm-1 4h5V7h-5v5zm10-1h-3V8h3v3zm1-4h-5v5h5V7z"/><path class="st2970" d="M1455 11h-3V8h3v3zm1-4h-5v5h5V7zm5 4h-3V8h3v3zm1-4h-5v5h5V7zm5 4h-3V8h3v3zm1-4h-5v5h5V7zm5 4h-3V8h3v3zm1-4h-5v5h5V7z"/><path class="st2969" d="M1479 11h-3V8h3v3zm1-4h-5v5h5V7zm5 4h-3V8h3v3zm1-4h-5v5h5V7zm-46 7h3v3h-3v-3zm-1 4h5v-5h-5v5z"/><path class="st2970" d="M1449 17h-3v-3h3v3zm1-4h-5v5h5v-5zm5 4h-3v-3h3v3zm1-4h-5v5h5v-5z"/><path class="st2971" d="M1461 17h-3v-3h3v3zm1-4h-5v5h5v-5zm5 4h-3v-3h3v3zm1-4h-5v5h5v-5z"/><path class="st2970" d="M1473 17h-3v-3h3v3zm1-4h-5v5h5v-5zm5 4h-3v-3h3v3zm1-4h-5v5h5v-5z"/><path class="st2969" d="M1485 17h-3v-3h3v3zm1-4h-5v5h5v-5z"/><path class="st2970" d="M1440 20h3v3h-3v-3zm-1 4h5v-5h-5v5zm10-1h-3v-3h3v3zm1-4h-5v5h5v-5z"/><path class="st2971" d="M1455 23h-3v-3h3v3zm1-4h-5v5h5v-5z"/><path class="st2972" d="M1461 23h-3v-3h3v3zm1-4h-5v5h5v-5zm5 4h-3v-3h3v3zm1-4h-5v5h5v-5z"/><path class="st2971" d="M1473 23h-3v-3h3v3zm1-4h-5v5h5v-5z"/><path class="st2970" d="M1479 23h-3v-3h3v3zm1-4h-5v5h5v-5zm5 4h-3v-3h3v3zm1-4h-5v5h5v-5z"/></g><defs><path id="SVGID_1929_" d="M1487 0h48v48h-48z"/></defs><clipPath id="SVGID_1930_"><use xlink:href="#SVGID_1929_" overflow="visible"/></clipPath><g clip-path="url(#SVGID_1930_)"><defs><path id="SVGID_1931_" d="M1487 0h48v48h-48z"/></defs><clipPath id="SVGID_1932_"><use xlink:href="#SVGID_1931_" overflow="visible"/></clipPath><g clip-path="url(#SVGID_1932_)"><defs><path id="SVGID_1933_" d="M1487 0h48v48h-48z"/></defs><clipPath id="SVGID_1934_"><use xlink:href="#SVGID_1933_" overflow="visible"/></clipPath><g opacity=".2" clip-path="url(#SVGID_1934_)"><defs><path id="SVGID_1935_" d="M1488 8h46v25h-46z"/></defs><clipPath id="SVGID_1936_"><use xlink:href="#SVGID_1935_" overflow="visible"/></clipPath><path d="M1527 14.5L1512 31l21.3-5.5c-1-4.2-3.2-8-6.3-11" clip-path="url(#SVGID_1936_)" fill="#e7c146"/><path d="M1490.6 20.4L1511 31l15.1-17.4c-4-3.5-9.3-5.6-15.1-5.6-8.9 0-16.6 5-20.4 12.4" clip-path="url(#SVGID_1936_)" fill="#8959ab"/><path d="M1511 33v-1l-21.1-10.1c-1.2 2.8-1.9 5.9-1.9 9.1 0 .7 0 1.3.1 2h22.9z" clip-path="url(#SVGID_1936_)" fill="#83beec"/><path d="M1512 32v1h21.9c.1-.7.1-1.3.1-2 0-1.3-.1-2.6-.3-3.9L1512 32z" clip-path="url(#SVGID_1936_)" fill="#53a93f"/></g><path d="M1527.1 16c2.3 2.5 4.1 5.5 5 8.8l-17.1 4.4 12.1-13.2m-.1-1.5L1512 31l21.3-5.5c-1-4.2-3.2-8-6.3-11" clip-path="url(#SVGID_1934_)" fill="#e7c146"/><path d="M1511 9c5 0 9.8 1.7 13.7 4.8l-13.9 16L1492 20c3.9-6.8 11.1-11 19-11m0-1c-8.9 0-16.6 5-20.4 12.4L1511 31l15.1-17.4c-4.1-3.5-9.3-5.6-15.1-5.6" clip-path="url(#SVGID_1934_)" fill="#8959ab"/><path d="M1490.4 23.3l18.3 8.7H1489v-1c0-2.7.5-5.3 1.4-7.7m-.5-1.4c-1.2 2.8-1.9 5.9-1.9 9.1 0 .7 0 1.3.1 2h22.9v-1l-21.1-10.1z" clip-path="url(#SVGID_1934_)" fill="#83beec"/><path d="M1532.8 28.3c.1.9.2 1.8.2 2.7v1h-16.5l16.3-3.7m.9-1.2L1512 32v1h21.9c.1-.7.1-1.3.1-2 0-1.3-.1-2.6-.3-3.9" clip-path="url(#SVGID_1934_)" fill="#53a93f"/></g></g><defs><path id="SVGID_1937_" d="M1535 0h48v48h-48z"/></defs><clipPath id="SVGID_1938_"><use xlink:href="#SVGID_1937_" overflow="visible"/></clipPath><g clip-path="url(#SVGID_1938_)"><defs><path id="SVGID_1939_" d="M1535 0h48v48h-48z"/></defs><clipPath id="SVGID_1940_"><use xlink:href="#SVGID_1939_" overflow="visible"/></clipPath><g clip-path="url(#SVGID_1940_)"><defs><path id="SVGID_1941_" d="M1535 0h48v48h-48z"/></defs><clipPath id="SVGID_1942_"><use xlink:href="#SVGID_1941_" overflow="visible"/></clipPath><g opacity=".2" clip-path="url(#SVGID_1942_)"><defs><path id="SVGID_1943_" d="M1536 1h45v46h-45z"/></defs><clipPath id="SVGID_1944_"><use xlink:href="#SVGID_1943_" overflow="visible"/></clipPath><path clip-path="url(#SVGID_1944_)" fill="#8959ab" d="M1572 13h9v34h-9z"/><path clip-path="url(#SVGID_1944_)" fill="#83beec" d="M1560 1h9v46h-9z"/><path clip-path="url(#SVGID_1944_)" fill="#53a93f" d="M1548 17h9v30h-9z"/><path clip-path="url(#SVGID_1944_)" fill="#e7c146" d="M1536 8h9v39h-9z"/></g></g><path d="M1573 14h7v32h-7V14zm-1 33h9V13h-9v34z" clip-path="url(#SVGID_1940_)" fill="#8959ab"/><path d="M1561 2h7v44h-7V2zm-1 45h9V1h-9v46z" clip-path="url(#SVGID_1940_)" fill="#83beec"/><path d="M1549 18h7v28h-7V18zm-1 29h9V17h-9v30z" clip-path="url(#SVGID_1940_)" fill="#53a93f"/><path d="M1544 46h-7V9h7v37zm1-38h-9v39h9V8z" clip-path="url(#SVGID_1940_)" fill="#e7c146"/></g><defs><path id="SVGID_1945_" d="M1583 0h48v48h-48z"/></defs><clipPath id="SVGID_1946_"><use xlink:href="#SVGID_1945_" overflow="visible"/></clipPath><g clip-path="url(#SVGID_1946_)"><defs><path id="SVGID_1947_" d="M1583 0h48v48h-48z"/></defs><clipPath id="SVGID_1948_"><use xlink:href="#SVGID_1947_" overflow="visible"/></clipPath><g class="st2996"><defs><path id="SVGID_1949_" d="M1583 0h48v48h-48z"/></defs><clipPath id="SVGID_1950_"><use xlink:href="#SVGID_1949_" overflow="visible"/></clipPath><g opacity=".2" clip-path="url(#SVGID_1950_)"><defs><path id="SVGID_1951_" d="M1607 2h23v45h-23z"/></defs><clipPath id="SVGID_1952_"><use xlink:href="#SVGID_1951_" overflow="visible"/></clipPath><path clip-path="url(#SVGID_1952_)" fill="#8959ab" d="M1607 38h14v9h-14z"/><path clip-path="url(#SVGID_1952_)" fill="#83beec" d="M1607 26h23v9h-23z"/><path clip-path="url(#SVGID_1952_)" fill="#53a93f" d="M1607 14h10v9h-10z"/><path clip-path="url(#SVGID_1952_)" fill="#e7c146" d="M1607 2h19v9h-19z"/></g></g><path class="st3002" d="M1620 46h-12v-7h12v7zm1-8h-14v9h14v-9z"/><path class="st3003" d="M1629 34h-21v-7h21v7zm1-8h-23v9h23v-9z"/><path class="st3004" d="M1616 22h-8v-7h8v7zm1-8h-10v9h10v-9z"/><path class="st3005" d="M1625 10h-17V3h17v7zm1-8h-19v9h19V2z"/><g class="st2996"><defs><path id="SVGID_1953_" d="M1583 0h48v48h-48z"/></defs><clipPath id="SVGID_1954_"><use xlink:href="#SVGID_1953_" overflow="visible"/></clipPath><g opacity=".2" clip-path="url(#SVGID_1954_)"><defs><path id="SVGID_1955_" d="M1584 2h20v45h-20z"/></defs><clipPath id="SVGID_1956_"><use xlink:href="#SVGID_1955_" overflow="visible"/></clipPath><path clip-path="url(#SVGID_1956_)" fill="#8959ab" d="M1592 38h12v9h-12z"/><path clip-path="url(#SVGID_1956_)" fill="#83beec" d="M1584 26h20v9h-20z"/><path clip-path="url(#SVGID_1956_)" fill="#53a93f" d="M1589 14h15v9h-15z"/><path clip-path="url(#SVGID_1956_)" fill="#e7c146" d="M1596 2h8v9h-8z"/></g></g><path class="st3002" d="M1603 46h-10v-7h10v7zm1-8h-12v9h12v-9z"/><path class="st3003" d="M1603 34h-18v-7h18v7zm1-8h-20v9h20v-9z"/><path class="st3004" d="M1603 22h-13v-7h13v7zm1-8h-15v9h15v-9z"/><path class="st3005" d="M1603 10h-6V3h6v7zm1-8h-8v9h8V2z"/><path clip-path="url(#SVGID_1948_)" fill="#c2c2c2" d="M1605 1h1v47h-1z"/></g><defs><path id="SVGID_1957_" d="M1631 0h48v48h-48z"/></defs><clipPath id="SVGID_1958_"><use xlink:href="#SVGID_1957_" overflow="visible"/></clipPath><g clip-path="url(#SVGID_1958_)"><defs><path id="SVGID_1959_" d="M1631 0h48v48h-48z"/></defs><clipPath id="SVGID_1960_"><use xlink:href="#SVGID_1959_" overflow="visible"/></clipPath><g clip-path="url(#SVGID_1960_)"><defs><path id="SVGID_1961_" d="M1631 0h48v48h-48z"/></defs><clipPath id="SVGID_1962_"><use xlink:href="#SVGID_1961_" overflow="visible"/></clipPath><g opacity=".2" clip-path="url(#SVGID_1962_)"><defs><path id="SVGID_1963_" d="M1632 1h45v46h-45z"/></defs><clipPath id="SVGID_1964_"><use xlink:href="#SVGID_1963_" overflow="visible"/></clipPath><path d="M1668 13h9v8h-9zm-12-12h9v19h-9zm-12 16h9v12h-9zm-12-9h9v16h-9z" clip-path="url(#SVGID_1964_)" fill="#8959ab"/><path d="M1668 22h9v12h-9zm-12-1h9v9h-9zm-12 9h9v5h-9zm-12-5h9v7h-9z" fill="#83beec" clip-path="url(#SVGID_1964_)"/><path d="M1668 35h9v5h-9zm-12-4h9v4h-9zm-12 5h9v5h-9zm-12-3h9v6h-9z" fill="#e7c146" clip-path="url(#SVGID_1964_)"/><path d="M1668 41h9v6h-9zm-12-5h9v11h-9zm-12 6h9v5h-9zm-12-2h9v7h-9z" fill="#53a93f" clip-path="url(#SVGID_1964_)"/></g></g><path d="M1676 20h-7v-6h7v6zm1-7h-9v8h9v-8zm-13 6h-7V2h7v17zm1-18h-9v19h9V1zm-13 27h-7V18h7v10zm1-11h-9v12h9V17zm-13 6h-7V9h7v14zm1-15h-9v16h9V8z" clip-path="url(#SVGID_1960_)" fill="#8959ab"/><path d="M1676 33h-7V23h7v10zm1-11h-9v12h9V22zm-13 7h-7v-7h7v7zm1-8h-9v9h9v-9zm-13 13h-7v-3h7v3zm1-4h-9v5h9v-5zm-13 1h-7v-5h7v5zm1-6h-9v7h9v-7z" fill="#83beec" clip-path="url(#SVGID_1960_)"/><path d="M1676 39h-7v-3h7v3zm1-4h-9v5h9v-5zm-13-1h-7v-2h7v2zm1-3h-9v4h9v-4zm-13 9h-7v-3h7v3zm1-4h-9v5h9v-5zm-13 2h-7v-4h7v4zm1-5h-9v6h9v-6z" fill="#e7c146" clip-path="url(#SVGID_1960_)"/><path d="M1676 46h-7v-4h7v4zm1-5h-9v6h9v-6zm-13 5h-7v-9h7v9zm1-10h-9v11h9V36zm-13 10h-7v-3h7v3zm1-4h-9v5h9v-5zm-13 4h-7v-5h7v5zm1-6h-9v7h9v-7z" fill="#53a93f" clip-path="url(#SVGID_1960_)"/></g><defs><path id="SVGID_1965_" d="M1679 0h48v48h-48z"/></defs><clipPath id="SVGID_1966_"><use xlink:href="#SVGID_1965_" overflow="visible"/></clipPath><g clip-path="url(#SVGID_1966_)"><defs><path id="SVGID_1967_" d="M1679 0h48v48h-48z"/></defs><clipPath id="SVGID_1968_"><use xlink:href="#SVGID_1967_" overflow="visible"/></clipPath><g clip-path="url(#SVGID_1968_)"><defs><path id="SVGID_1969_" d="M1679 0h48v48h-48z"/></defs><clipPath id="SVGID_1970_"><use xlink:href="#SVGID_1969_" overflow="visible"/></clipPath><g opacity=".2" clip-path="url(#SVGID_1970_)"><defs><path id="SVGID_1971_" d="M1680 2h46v45h-46z"/></defs><clipPath id="SVGID_1972_"><use xlink:href="#SVGID_1971_" overflow="visible"/></clipPath><path d="M1706 38h8v9h-8zm1-12h19v9h-19zm-9-12h12v9h-12zm5-12h16v9h-16z" clip-path="url(#SVGID_1972_)" fill="#8959ab"/><path d="M1693 38h12v9h-12zm4-12h9v9h-9zm-5-12h5v9h-5zm3-12h7v9h-7z" fill="#83beec" clip-path="url(#SVGID_1972_)"/><path d="M1687 38h5v9h-5zm5-12h4v9h-4zm-6-12h5v9h-5zm2-12h6v9h-6z" fill="#e7c146" clip-path="url(#SVGID_1972_)"/><path d="M1680 38h6v9h-6zm0-12h11v9h-11zm0-12h5v9h-5zm0-12h7v9h-7z" fill="#53a93f" clip-path="url(#SVGID_1972_)"/></g></g><path d="M1713 46h-6v-7h6v7zm1-8h-8v9h8v-9zm11-4h-17v-7h17v7zm1-8h-19v9h19v-9zm-17-4h-10v-7h10v7zm1-8h-12v9h12v-9zm8-4h-14V3h14v7zm1-8h-16v9h16V2z" clip-path="url(#SVGID_1968_)" fill="#8959ab"/><path d="M1704 46h-10v-7h10v7zm1-8h-12v9h12v-9zm0-4h-7v-7h7v7zm1-8h-9v9h9v-9zm-10-4h-3v-7h3v7zm1-8h-5v9h5v-9zm4-4h-5V3h5v7zm1-8h-7v9h7V2z" fill="#83beec" clip-path="url(#SVGID_1968_)"/><path d="M1691 46h-3v-7h3v7zm1-8h-5v9h5v-9zm3-4h-2v-7h2v7zm1-8h-4v9h4v-9zm-6-4h-3v-7h3v7zm1-8h-5v9h5v-9zm2-4h-4V3h4v7zm1-8h-6v9h6V2z" fill="#e7c146" clip-path="url(#SVGID_1968_)"/><path d="M1685 46h-4v-7h4v7zm1-8h-6v9h6v-9zm4-4h-9v-7h9v7zm1-8h-11v9h11v-9zm-7-4h-3v-7h3v7zm1-8h-5v9h5v-9zm1-4h-5V3h5v7zm1-8h-7v9h7V2z" fill="#53a93f" clip-path="url(#SVGID_1968_)"/></g><defs><path id="SVGID_1973_" d="M1727 0h48v48h-48z"/></defs><clipPath id="SVGID_1974_"><use xlink:href="#SVGID_1973_" overflow="visible"/></clipPath><g clip-path="url(#SVGID_1974_)"><defs><path id="SVGID_1975_" d="M1727 0h48v48h-48z"/></defs><clipPath id="SVGID_1976_"><use xlink:href="#SVGID_1975_" overflow="visible"/></clipPath><g clip-path="url(#SVGID_1976_)"><defs><path id="SVGID_1977_" d="M1727 0h48v48h-48z"/></defs><clipPath id="SVGID_1978_"><use xlink:href="#SVGID_1977_" overflow="visible"/></clipPath><g opacity=".2" clip-path="url(#SVGID_1978_)"><defs><path id="SVGID_1979_" d="M1728 2h46v45h-46z"/></defs><clipPath id="SVGID_1980_"><use xlink:href="#SVGID_1979_" overflow="visible"/></clipPath><path clip-path="url(#SVGID_1980_)" fill="#8959ab" d="M1728 38h34v9h-34z"/><path clip-path="url(#SVGID_1980_)" fill="#83beec" d="M1728 26h46v9h-46z"/><path clip-path="url(#SVGID_1980_)" fill="#53a93f" d="M1728 14h30v9h-30z"/><path clip-path="url(#SVGID_1980_)" fill="#e7c146" d="M1728 2h39v9h-39z"/></g></g><path d="M1761 46h-32v-7h32v7zm1-8h-34v9h34v-9z" clip-path="url(#SVGID_1976_)" fill="#8959ab"/><path d="M1773 34h-44v-7h44v7zm1-8h-46v9h46v-9z" clip-path="url(#SVGID_1976_)" fill="#83beec"/><path d="M1757 22h-28v-7h28v7zm1-8h-30v9h30v-9z" clip-path="url(#SVGID_1976_)" fill="#53a93f"/><path d="M1766 10h-37V3h37v7zm1-8h-39v9h39V2z" clip-path="url(#SVGID_1976_)" fill="#e7c146"/></g><defs><path id="SVGID_1981_" d="M1775 0h48v48h-48z"/></defs><clipPath id="SVGID_1982_"><use xlink:href="#SVGID_1981_" overflow="visible"/></clipPath><g clip-path="url(#SVGID_1982_)"><defs><path id="SVGID_1983_" d="M1775 0h48v48h-48z"/></defs><clipPath id="SVGID_1984_"><use xlink:href="#SVGID_1983_" overflow="visible"/></clipPath><g clip-path="url(#SVGID_1984_)"><defs><path id="SVGID_1985_" d="M1775 0h48v48h-48z"/></defs><clipPath id="SVGID_1986_"><use xlink:href="#SVGID_1985_" overflow="visible"/></clipPath><g opacity=".2" clip-path="url(#SVGID_1986_)"><defs><path id="SVGID_1987_" d="M1776 1h46v46h-46z"/></defs><clipPath id="SVGID_1988_"><use xlink:href="#SVGID_1987_" overflow="visible"/></clipPath><path clip-path="url(#SVGID_1988_)" fill="#e7c146" d="M1776 25h11v22h-11z"/><path clip-path="url(#SVGID_1988_)" fill="#8959ab" d="M1788 12h11v27h-11z"/><path clip-path="url(#SVGID_1988_)" fill="#83beec" d="M1800 15h10v17h-10z"/><path clip-path="url(#SVGID_1988_)" fill="#53a93f" d="M1811 1h11v35h-11z"/></g></g><path d="M1786 46h-9V26h9v20zm1-21h-11v22h11V25z" clip-path="url(#SVGID_1984_)" fill="#e7c146"/><path d="M1798 38h-9V13h9v25zm1-26h-11v27h11V12z" clip-path="url(#SVGID_1984_)" fill="#8959ab"/><path d="M1809 31h-8V16h8v15zm1-16h-10v17h10V15z" clip-path="url(#SVGID_1984_)" fill="#83beec"/><path d="M1821 35h-9V2h9v33zm1-34h-11v35h11V1z" clip-path="url(#SVGID_1984_)" fill="#53a93f"/></g><defs><path id="SVGID_1989_" d="M1823 0h48v48h-48z"/></defs><clipPath id="SVGID_1990_"><use xlink:href="#SVGID_1989_" overflow="visible"/></clipPath><g clip-path="url(#SVGID_1990_)"><defs><path id="SVGID_1991_" d="M1823 0h48v48h-48z"/></defs><clipPath id="SVGID_1992_"><use xlink:href="#SVGID_1991_" overflow="visible"/></clipPath><g clip-path="url(#SVGID_1992_)"><defs><path id="SVGID_1993_" d="M1823 0h48v48h-48z"/></defs><clipPath id="SVGID_1994_"><use xlink:href="#SVGID_1993_" overflow="visible"/></clipPath><g opacity=".2" clip-path="url(#SVGID_1994_)"><defs><path id="SVGID_1995_" d="M1824 1h46v46h-46z"/></defs><clipPath id="SVGID_1996_"><use xlink:href="#SVGID_1995_" overflow="visible"/></clipPath><path class="st3059" d="M1864 4c0 1.7 1.3 3 3 3s3-1.3 3-3-1.3-3-3-3-3 1.3-3 3m-9 10c0 1.7 1.3 3 3 3s3-1.3 3-3-1.3-3-3-3-3 1.3-3 3"/><path class="st3060" d="M1861 24c0 1.7 1.3 3 3 3s3-1.3 3-3-1.3-3-3-3-3 1.3-3 3m-25-17c0 1.7 1.3 3 3 3s3-1.3 3-3-1.3-3-3-3-3 1.3-3 3"/><path class="st3061" d="M1839.2 29.1c0 1.6 1.3 2.9 2.9 2.9 1.6 0 2.9-1.3 2.9-2.9 0-1.6-1.3-2.9-2.9-2.9-1.6 0-2.9 1.3-2.9 2.9"/><path d="M1824 44c0 1.7 1.3 3 3 3s3-1.3 3-3-1.3-3-3-3-3 1.3-3 3m3.5-7.5c0 1.7 1.3 3 3 3s3-1.3 3-3-1.3-3-3-3-3 1.3-3 3" fill="#53a93f" clip-path="url(#SVGID_1996_)"/><path class="st3061" d="M1837 42c0 1.7 1.3 3 3 3s3-1.3 3-3-1.3-3-3-3-3 1.3-3 3m-9-19c0 1.7 1.3 3 3 3s3-1.3 3-3-1.3-3-3-3-3 1.3-3 3m4-7.6c0 1.7 1.3 3 3 3s3-1.3 3-3-1.3-3-3-3-3 1.3-3 3"/><path class="st3059" d="M1847 9c0 1.7 1.3 3 3 3s3-1.3 3-3-1.3-3-3-3-3 1.3-3 3"/><path class="st3061" d="M1848 39c0 1.7 1.3 3 3 3s3-1.3 3-3-1.3-3-3-3-3 1.3-3 3"/><path class="st3060" d="M1844 20c0 1.7 1.3 3 3 3s3-1.3 3-3-1.3-3-3-3-3 1.3-3 3m7 9c0 1.7 1.3 3 3 3s3-1.3 3-3-1.3-3-3-3-3 1.3-3 3"/></g><path class="st3063" d="M1842.1 27.2c1 0 1.9.8 1.9 1.9 0 1-.8 1.9-1.9 1.9s-1.9-.8-1.9-1.9c0-1 .9-1.9 1.9-1.9m0-1c-1.6 0-2.9 1.3-2.9 2.9 0 1.6 1.3 2.9 2.9 2.9 1.6 0 2.9-1.3 2.9-2.9 0-1.6-1.3-2.9-2.9-2.9M1840 40c1.1 0 2 .9 2 2s-.9 2-2 2-2-.9-2-2 .9-2 2-2m0-1c-1.7 0-3 1.3-3 3s1.3 3 3 3 3-1.3 3-3-1.3-3-3-3m-9-18c1.1 0 2 .9 2 2s-.9 2-2 2-2-.9-2-2 .9-2 2-2m0-1c-1.7 0-3 1.3-3 3s1.3 3 3 3 3-1.3 3-3-1.3-3-3-3m4-6.6c1.1 0 2 .9 2 2s-.9 2-2 2-2-.9-2-2 .9-2 2-2m0-1c-1.7 0-3 1.3-3 3s1.3 3 3 3 3-1.3 3-3-1.3-3-3-3"/><path d="M1834 17l-2 4m1 4l7 3m4 2l5 7m0 3l-7 2" fill="none" stroke="#e7c146" stroke-miterlimit="10" clip-path="url(#SVGID_1994_)"/><path class="st3063" d="M1851 37c1.1 0 2 .9 2 2s-.9 2-2 2-2-.9-2-2 .9-2 2-2m0-1c-1.7 0-3 1.3-3 3s1.3 3 3 3 3-1.3 3-3-1.3-3-3-3"/><path d="M1867 2c1.1 0 2 .9 2 2s-.9 2-2 2-2-.9-2-2 .9-2 2-2m0-1c-1.7 0-3 1.3-3 3s1.3 3 3 3 3-1.3 3-3-1.3-3-3-3m-9 11c1.1 0 2 .9 2 2s-.9 2-2 2-2-.9-2-2 .9-2 2-2m0-1c-1.7 0-3 1.3-3 3s1.3 3 3 3 3-1.3 3-3-1.3-3-3-3m-8-4c1.1 0 2 .9 2 2s-.9 2-2 2-2-.9-2-2 .9-2 2-2m0-1c-1.7 0-3 1.3-3 3s1.3 3 3 3 3-1.3 3-3-1.3-3-3-3" fill="#8959ab" clip-path="url(#SVGID_1994_)"/><path d="M1856 13l-4-2m0-3l13-3" fill="none" stroke="#8959ab" stroke-miterlimit="10" clip-path="url(#SVGID_1994_)"/><path d="M1864 22c1.1 0 2 .9 2 2s-.9 2-2 2-2-.9-2-2 .9-2 2-2m0-1c-1.7 0-3 1.3-3 3s1.3 3 3 3 3-1.3 3-3-1.3-3-3-3m-25-16c1.1 0 2 .9 2 2s-.9 2-2 2-2-.9-2-2 .9-2 2-2m0-1c-1.7 0-3 1.3-3 3s1.3 3 3 3 3-1.3 3-3-1.3-3-3-3m8 14c1.1 0 2 .9 2 2s-.9 2-2 2-2-.9-2-2 .9-2 2-2m0-1c-1.7 0-3 1.3-3 3s1.3 3 3 3 3-1.3 3-3-1.3-3-3-3m7 10c1.1 0 2 .9 2 2s-.9 2-2 2-2-.9-2-2 .9-2 2-2m0-1c-1.7 0-3 1.3-3 3s1.3 3 3 3 3-1.3 3-3-1.3-3-3-3" clip-path="url(#SVGID_1994_)" fill="#83beec"/><path d="M1840 9l6 9m7 9l-4-5m7 6l6-3" fill="none" stroke="#83beec" stroke-miterlimit="10" clip-path="url(#SVGID_1994_)"/><path d="M1827 42c1.1 0 2 .9 2 2s-.9 2-2 2-2-.9-2-2 .9-2 2-2m0-1c-1.7 0-3 1.3-3 3s1.3 3 3 3 3-1.3 3-3-1.3-3-3-3m3.5-6.5c1.1 0 2 .9 2 2s-.9 2-2 2-2-.9-2-2 .9-2 2-2m0-1c-1.7 0-3 1.3-3 3s1.3 3 3 3 3-1.3 3-3-1.3-3-3-3" fill="#53a93f" clip-path="url(#SVGID_1994_)"/><path clip-path="url(#SVGID_1994_)" fill="none" stroke="#53a93f" stroke-miterlimit="10" d="M1829 39l-1 3"/></g></g><defs><path id="SVGID_1997_" d="M1871 0h48v48h-48z"/></defs><clipPath id="SVGID_1998_"><use xlink:href="#SVGID_1997_" overflow="visible"/></clipPath><g clip-path="url(#SVGID_1998_)"><defs><path id="SVGID_1999_" d="M1871 0h48v48h-48z"/></defs><clipPath id="SVGID_2000_"><use xlink:href="#SVGID_1999_" overflow="visible"/></clipPath><g clip-path="url(#SVGID_2000_)"><defs><path id="SVGID_2001_" d="M1871 0h48v48h-48z"/></defs><clipPath id="SVGID_2002_"><use xlink:href="#SVGID_2001_" overflow="visible"/></clipPath><g opacity=".2" clip-path="url(#SVGID_2002_)"><defs><path id="SVGID_2003_" d="M1872 1h46v46h-46z"/></defs><clipPath id="SVGID_2004_"><use xlink:href="#SVGID_2003_" overflow="visible"/></clipPath><path clip-path="url(#SVGID_2004_)" fill="#53a93f" d="M1899.9 9l-3.9-8h-2l-3.9 8z"/><path clip-path="url(#SVGID_2004_)" fill="#e7c146" d="M1883.2 23h23.6l-6.4-13h-10.8z"/><path clip-path="url(#SVGID_2004_)" fill="#83beec" d="M1874.4 41h41.2l-8.4-17h-24.4z"/><path clip-path="url(#SVGID_2004_)" fill="#8959ab" d="M1874 42l-2 4v1h46v-1l-2-4z"/></g></g><path d="M1895.4 2l2.9 6h-6.6l2.9-6h.8zm.6-1h-2l-3.9 8h9.8l-3.9-8z" clip-path="url(#SVGID_2000_)" fill="#53a93f"/><path d="M1899.8 11l5.4 11h-20.3l5.4-11h9.5zm.6-1h-10.8l-6.4 13h23.5l-6.3-13z" clip-path="url(#SVGID_2000_)" fill="#e7c146"/><path d="M1906.6 25l7.3 15H1876l7.3-15h23.3zm.6-1h-24.5l-8.3 17h41.1l-8.3-17z" clip-path="url(#SVGID_2000_)" fill="#83beec"/><path d="M1915.4 43l1.5 3h-43.8l1.5-3h40.8zm.6-1h-42l-2 4v1h46v-1l-2-4z" clip-path="url(#SVGID_2000_)" fill="#8959ab"/></g><defs><path id="SVGID_2005_" d="M1919 0h48v48h-48z"/></defs><clipPath id="SVGID_2006_"><use xlink:href="#SVGID_2005_" overflow="visible"/></clipPath><g clip-path="url(#SVGID_2006_)"><defs><path id="SVGID_2007_" d="M1919 0h48v48h-48z"/></defs><clipPath id="SVGID_2008_"><use xlink:href="#SVGID_2007_" overflow="visible"/></clipPath><g clip-path="url(#SVGID_2008_)"><defs><path id="SVGID_2009_" d="M1941.5 2h3v19.9l20-6.4.9 2.9-20.1 6.4 13.9 20.3-2.5 1.7-13.7-20.1-13.8 20.2-2.5-1.7 13.9-20.3-20.1-6.4.9-2.9 20 6.4V2zM1919 48h48V0h-48v48z"/></defs><clipPath id="SVGID_2010_"><use xlink:href="#SVGID_2009_" overflow="visible"/></clipPath><g opacity=".2" clip-path="url(#SVGID_2010_)"><defs><path id="SVGID_2011_" d="M1924 3.7h37V42h-37z"/></defs><clipPath id="SVGID_2012_"><use xlink:href="#SVGID_2011_" overflow="visible"/></clipPath><path d="M1950.6 15.7l-7.6-12-11.7 12.8L1943 14zm3.9 16L1952 37l-3.1.5 6.1 4.5z" clip-path="url(#SVGID_2012_)" fill="#83beec"/><path d="M1954.5 31.7L1961 18l-10.4-2.3 3.4 5.3zM1929 19l2.3-2.5-7.3 1.5 8 22 16.9-2.5-9.9-7.5z" fill="#e7c146" clip-path="url(#SVGID_2012_)"/><path clip-path="url(#SVGID_2012_)" fill="#53a93f" d="M1954 21l-3.4-5.3-7.6-1.7-11.7 2.5-2.3 2.5 10 11 9.9 7.5 3.1-.5 2.5-5.3z"/></g></g><path d="M1944.5 7.9l4 6.3-4-.9v1l6.1 1.4-6.1-9.6v1.8zm-13.2 8.6l10.2-2.1v-1l-7.3 1.5 7.3-8V5.3l-10.2 11.2zm17.6 21l2.9 2.2-1.6-2.4-1.3.2zm3.8-2l.7 1 .4-.8.1 1.4 1.1 1.6-.3-7-2 3.8z" clip-path="url(#SVGID_2008_)" fill="#83beec"/><path d="M1958.7 20.6l-3.3 7.1-.3-5.9-1 .3.5 9.6 5.5-11.5-1.4.4zm-5.8-1.3l1-.3-1.1-1.8 3.9.9 1.9-.6-8-1.8 2.3 3.6zm-13.3 12.4l6.9 5.1-11.5 1.7-.8 1.1 14.8-2.2-8.8-6.6-.6.9zm-2.3-2l.6-.8-6.2-6.8-1.9-.6 7.5 8.2zm-5.9 8.7l.7-1-6.3-17.2-1.2-.4 6.8 18.6zm-4.3-21l2.7.8 1.6-1.7-4.3.9z" fill="#e7c146" clip-path="url(#SVGID_2008_)"/><path d="M1940.1 30.9l8.8 6.6 1.3-.2-.6-.9-.4.1-8.5-6.4-.6.8zm13-8.5l.4 9.1-1.5 3.1.7 1 1.8-3.8-.5-9.6-.9.2zm-15.2 6.4l.6-.8-4.9-5.4-1.9-.6 6.2 6.8zm6.6-13.4l5.5 1.2 1.9 3 1-.3-2.3-3.6-6.1-1.4v1.1zm-13.2 1.1l-1.6 1.7 1 .3 1.1-1.2 9.7-2v-1l-10.2 2.2z" clip-path="url(#SVGID_2008_)" fill="#53a93f"/><path d="M1943 24l-15 22m15-22l15 22m-15-22l22-7m-44 0l22 7m0 0V2" fill="none" stroke="#777" stroke-miterlimit="10" clip-path="url(#SVGID_2008_)"/></g><defs><path id="SVGID_2013_" d="M1967 0h48v48h-48z"/></defs><clipPath id="SVGID_2014_"><use xlink:href="#SVGID_2013_" overflow="visible"/></clipPath><g clip-path="url(#SVGID_2014_)"><defs><path id="SVGID_2015_" d="M1967 0h48v48h-48z"/></defs><clipPath id="SVGID_2016_"><use xlink:href="#SVGID_2015_" overflow="visible"/></clipPath><g clip-path="url(#SVGID_2016_)"><defs><path id="SVGID_2017_" d="M1967 0h48v48h-48z"/></defs><clipPath id="SVGID_2018_"><use xlink:href="#SVGID_2017_" overflow="visible"/></clipPath><g opacity=".2" clip-path="url(#SVGID_2018_)"><defs><path id="SVGID_2019_" d="M1968 1h46v46h-46z"/></defs><clipPath id="SVGID_2020_"><use xlink:href="#SVGID_2019_" overflow="visible"/></clipPath><path d="M2007 7.5L1992 24l21.3-5.5c-1-4.2-3.2-8-6.3-11" clip-path="url(#SVGID_2020_)" fill="#e7c146"/><path d="M1970.6 13.4L1991 24l15.1-17.4c-4-3.5-9.3-5.6-15.1-5.6-8.9 0-16.6 5-20.4 12.4" clip-path="url(#SVGID_2020_)" fill="#8959ab"/><path d="M1969.9 14.9c-1.2 2.8-1.9 5.9-1.9 9.1 0 12.7 10.3 23 23 23V25l-21.1-10.1z" clip-path="url(#SVGID_2020_)" fill="#83beec"/><path d="M1992 25v22c12.2-.5 22-10.6 22-23 0-1.3-.1-2.6-.3-3.9L1992 25z" clip-path="url(#SVGID_2020_)" fill="#53a93f"/></g><path d="M2007.1 9c2.3 2.5 4.1 5.5 5 8.8l-17.1 4.4L2007.1 9m-.1-1.5L1992 24l21.3-5.5c-1-4.2-3.2-8-6.3-11" clip-path="url(#SVGID_2018_)" fill="#e7c146"/><path d="M1991 2c5 0 9.8 1.7 13.7 4.8l-13.9 16L1972 13c3.9-6.8 11.1-11 19-11m0-1c-8.9 0-16.6 5-20.4 12.4L1991 24l15.1-17.4C2002 3.1 1996.8 1 1991 1" clip-path="url(#SVGID_2018_)" fill="#8959ab"/><path d="M1970.4 16.3l19.6 9.4V46c-11.7-.5-21-10.2-21-22 0-2.7.5-5.3 1.4-7.7m-.5-1.4c-1.2 2.8-1.9 5.9-1.9 9.1 0 12.7 10.3 23 23 23V25l-21.1-10.1z" clip-path="url(#SVGID_2018_)" fill="#83beec"/><path d="M2012.8 21.3c.1.9.2 1.8.2 2.7 0 11.5-8.7 20.9-20 21.9V25.8l19.8-4.5m.9-1.2L1992 25v22c12.2-.5 22-10.6 22-23 0-1.3-.1-2.6-.3-3.9" clip-path="url(#SVGID_2018_)" fill="#53a93f"/></g></g><defs><path id="SVGID_2021_" d="M2015 0h48v48h-48z"/></defs><clipPath id="SVGID_2022_"><use xlink:href="#SVGID_2021_" overflow="visible"/></clipPath><g clip-path="url(#SVGID_2022_)"><defs><path id="SVGID_2023_" d="M2015 0h48v48h-48z"/></defs><clipPath id="SVGID_2024_"><use xlink:href="#SVGID_2023_" overflow="visible"/></clipPath><g clip-path="url(#SVGID_2024_)"><defs><path id="SVGID_2025_" d="M2015 0h48v48h-48z"/></defs><clipPath id="SVGID_2026_"><use xlink:href="#SVGID_2025_" overflow="visible"/></clipPath><g opacity=".2" clip-path="url(#SVGID_2026_)"><defs><path id="SVGID_2027_" d="M2016.3 3.2h45.7V47h-45.7z"/></defs><clipPath id="SVGID_2028_"><use xlink:href="#SVGID_2027_" overflow="visible"/></clipPath><path d="M2049.6 13.4l-4.7 5.2c.9 1 1.6 2.2 1.9 3.6l6.8-1.7c-.7-2.7-2.1-5.1-4-7.1" clip-path="url(#SVGID_2028_)" fill="#e7c146"/><path class="st3107" d="M2039 9c-5.8 0-10.8 3.3-13.3 8.1l6.2 3.2c1.3-2.6 4-4.3 7.1-4.3 2 0 3.8.7 5.2 2l4.6-5.3c-2.6-2.3-6-3.7-9.8-3.7"/><path class="st3108" d="M2031 24c0-.9.2-1.8.4-2.6l-6.3-3c-.7 1.7-1.1 3.6-1.1 5.6 0 8.3 6.7 15 15 15v-7c-4.4 0-8-3.6-8-8"/><path class="st3109" d="M2047 24c0 4.1-3.1 7.4-7 7.9v7c7.8-.5 14-7 14-15 0-.7-.1-1.4-.2-2.1l-6.9 1.6c.1.2.1.4.1.6"/><path class="st3107" d="M2018.6 13.4l6.2 3.2c1.6-3.1 4.2-5.5 7.3-7l-3-6.3c-4.5 2.1-8.2 5.7-10.5 10.1"/><path class="st3108" d="M2028 35.6l-5.1 4.8c4.2 4.1 9.8 6.6 16.1 6.6v-7c-4.3 0-8.2-1.7-11-4.4m-5.8 4.2l5-5c-2-2.2-3.4-4.8-3.9-7.8l-6.9 1c.7 4.5 2.8 8.5 5.8 11.8"/><path class="st3109" d="M2046.1 38.3c-1.8.9-3.9 1.5-6.1 1.6v7c3.2-.1 6.2-.9 9-2.2l-2.9-6.4zm11-.1l-5.6-4.2c-1.2 1.5-2.7 2.8-4.4 3.8l3 6.3c2.7-1.5 5.1-3.5 7-5.9m-2.3-16.6c.1.8.2 1.6.2 2.4 0 3.4-1.1 6.6-2.9 9.2l5.8 3.9c2.6-3.7 4.2-8.3 4.2-13.2 0-1.3-.1-2.6-.3-3.9l-7 1.6z"/></g><path d="M2049.6 13.4l-4.7 5.2c.9 1 1.6 2.2 1.9 3.6l6.8-1.7c-.7-2.7-2.1-5.1-4-7.1z" clip-path="url(#SVGID_2026_)" fill="none" stroke="#e7c146" stroke-miterlimit="10"/><path class="st3111" d="M2039 10c3 0 6 1 8.4 2.8l-3.3 3.8c-1.5-1-3.3-1.6-5.1-1.6-3 0-5.8 1.5-7.5 4l-4.4-2.3c2.5-4.2 7-6.7 11.9-6.7m0-1c-5.8 0-10.8 3.3-13.3 8.1l6.2 3.2c1.3-2.6 4-4.3 7.1-4.3 2 0 3.8.7 5.2 2l4.6-5.3c-2.6-2.3-6-3.7-9.8-3.7"/><path class="st3112" d="M2025.7 19.7l4.6 2.2c-.2.7-.2 1.4-.2 2.1 0 4.6 3.5 8.4 8 8.9v5c-7.3-.5-13-6.6-13-14-.1-1.4.1-2.8.6-4.2m-.6-1.3c-.7 1.7-1.1 3.6-1.1 5.6 0 8.3 6.7 15 15 15v-7c-4.4 0-8-3.6-8-8 0-.9.2-1.8.4-2.6l-6.3-3z"/><path class="st3113" d="M2053 23.1v.9c0 7-5.2 12.9-12 13.8v-5.1c4-.9 6.9-4.4 7-8.6l5-1m.8-1.2l-6.9 1.6v.6c0 4.1-3.1 7.4-7 7.9v7c7.8-.5 14-7 14-14.9.1-.8 0-1.5-.1-2.2"/><path class="st3111" d="M2028.6 4.6l2.2 4.5c-2.6 1.4-4.8 3.6-6.4 6.1l-4.4-2.3c2-3.5 5-6.4 8.6-8.3m.5-1.4c-4.5 2.2-8.2 5.7-10.5 10.1l6.2 3.2c1.6-3.1 4.2-5.5 7.3-7l-3-6.3z"/><path class="st3112" d="M2028 36.9c2.8 2.4 6.3 3.8 10 4v5c-5.1-.2-9.9-2.2-13.7-5.6l3.7-3.4m0-1.3l-5.1 4.8c4.1 4.1 9.8 6.6 16.1 6.6v-7c-4.3 0-8.2-1.7-11-4.4m-5.5-7.5c.6 2.4 1.7 4.7 3.3 6.7l-3.6 3.6c-2.4-2.7-4-6-4.8-9.5l5.1-.8m.8-1.1l-6.9 1c.8 4.5 2.9 8.6 5.9 11.8l5-5c-2.1-2.2-3.5-4.9-4-7.8"/><path class="st3113" d="M2045.6 39.7l2.1 4.6c-2.1.9-4.3 1.5-6.6 1.7v-5c1.5-.3 3-.7 4.5-1.3m.5-1.4c-1.8.9-3.9 1.5-6.1 1.6v7c3.2-.1 6.2-.9 9-2.2l-2.9-6.4zm5.5-2.9l4 3c-1.5 1.7-3.2 3.1-5 4.3l-2.2-4.6c1.2-.7 2.3-1.7 3.2-2.7m-.1-1.4c-1.2 1.5-2.7 2.8-4.4 3.8l3 6.3c2.7-1.5 5-3.5 6.9-5.9l-5.5-4.2zm9.3-12.7c.1.9.2 1.8.2 2.7 0 4.2-1.2 8.3-3.4 11.8l-4.1-2.8c1.7-2.7 2.6-5.8 2.6-9 0-.5 0-1-.1-1.6l4.8-1.1m.9-1.2l-6.9 1.6c.1.8.2 1.6.2 2.4 0 3.4-1.1 6.6-2.9 9.2l5.8 3.9c2.6-3.7 4.2-8.3 4.2-13.2-.1-1.3-.2-2.6-.4-3.9"/></g></g><defs><path id="SVGID_2029_" d="M2063 0h48v48h-48z"/></defs><clipPath id="SVGID_2030_"><use xlink:href="#SVGID_2029_" overflow="visible"/></clipPath><g clip-path="url(#SVGID_2030_)"><defs><path id="SVGID_2031_" d="M2063 0h48v48h-48z"/></defs><clipPath id="SVGID_2032_"><use xlink:href="#SVGID_2031_" overflow="visible"/></clipPath><g clip-path="url(#SVGID_2032_)"><defs><path id="SVGID_2033_" d="M2063 0h48v48h-48z"/></defs><clipPath id="SVGID_2034_"><use xlink:href="#SVGID_2033_" overflow="visible"/></clipPath><g opacity=".2" clip-path="url(#SVGID_2034_)"><defs><path id="SVGID_2035_" d="M2064 1h46v46h-46z"/></defs><clipPath id="SVGID_2036_"><use xlink:href="#SVGID_2035_" overflow="visible"/></clipPath><path clip-path="url(#SVGID_2036_)" fill="#e7c146" d="M2064 25h11v22h-11z"/><path clip-path="url(#SVGID_2036_)" fill="#8959ab" d="M2076 12h11v13h-11z"/><path clip-path="url(#SVGID_2036_)" fill="#83beec" d="M2088 1h10v11h-10z"/><path clip-path="url(#SVGID_2036_)" fill="#53a93f" d="M2099 12h11v24h-11z"/></g></g><path d="M2074 46h-9V26h9v20zm1-21h-11v22h11V25z" clip-path="url(#SVGID_2032_)" fill="#e7c146"/><path d="M2086 24h-9V13h9v11zm1-12h-11v13h11V12z" clip-path="url(#SVGID_2032_)" fill="#8959ab"/><path d="M2097 11h-8V2h8v9zm1-10h-10v11h10V1z" clip-path="url(#SVGID_2032_)" fill="#83beec"/><path d="M2109 35h-9V13h9v22zm1-23h-11v24h11V12z" clip-path="url(#SVGID_2032_)" fill="#53a93f"/></g><defs><path id="SVGID_2037_" d="M2111 0h48v48h-48z"/></defs><clipPath id="SVGID_2038_"><use xlink:href="#SVGID_2037_" overflow="visible"/></clipPath><g clip-path="url(#SVGID_2038_)"><defs><path id="SVGID_2039_" d="M2111 0h48v48h-48z"/></defs><clipPath id="SVGID_2040_"><use xlink:href="#SVGID_2039_" overflow="visible"/></clipPath><g clip-path="url(#SVGID_2040_)"><defs><path id="SVGID_2041_" d="M2111 0h48v48h-48z"/></defs><clipPath id="SVGID_2042_"><use xlink:href="#SVGID_2041_" overflow="visible"/></clipPath><g opacity=".2" clip-path="url(#SVGID_2042_)"><defs><path id="SVGID_2043_" d="M2112 1h46v46h-46z"/></defs><clipPath id="SVGID_2044_"><use xlink:href="#SVGID_2043_" overflow="visible"/></clipPath><path d="M2157.9 47c-.1-1.9-.4-3.7-.6-5.5-.2-1.9-.5-3.7-.7-5.6-.5-4.1-1-5.3-1.6-9.2-.3-2-.6-4-1.1-5.8-.3-1.1-.6-1.2-.9-.1-.3 1-.4 2.1-.6 3.2-.1.4-.6 4-.7 4.9-.4 2.5-.6 5.2-1 7.7-.3 2.7-.6 5.3-1.1 7.8-.7 3.5-1.2 1.4-1.7-.9-.9-4.3-1.4-9-2.1-13.5-.3-2-.6-4-1.2-5.6-.5-1.4-1.1 1.4-1.3 2.4-.9 4-1.5 8.2-2.4 12.3-1.2 5.9-2 1.8-2.9-1.7-.6-2.5-1.2-5.1-1.9-7.6-.2-.7-.4-1.4-.8-1.8-1-.8-2.4 6.8-3 8.4-.8 2.2-1.4 4.8-2.8 2.8-2.8-4.5-2.6-6.6-6.2-4.4-.8.2-3.8 1.9-4.5 2.4-.3.2-1 .6-1.4.7-1.4.2-1.6-.4-2.8-2-.8-1.2-1.7-4.4-2.5-5.9v-8.8c1.4 2.7 2.5 6.2 4.2 7.9.3.3.6.2.8-.3.3-.7.6-1.5.9-2.3.9-2.9 1.5-6.4 2.7-8.8.4-1 1-.5 1.4.3 1.1 2.1 1.9 4.9 3.1 6.7.9 1.6 1.6-1 2.1-2.6.8-2.8 1.5-6 2.5-8.4 1.3-3.3 3.6 6.8 5.1 7.4 1.3.4 3-9.9 4.3-11.8.7-1.1 1.5.7 2 1.8.8 1.5 2.4 7 3.4 5.7 1.5-3.1 2.2-8 3.6-11.2.7-1.8 1.5.2 2.1 1.4.8 1.5 2.5 7.4 3.5 5.7 1-1.6 1.6-3.9 2.4-5.9.6-1.8 1.2-3.7 1.7-5.7l.1.1c-.1 15.2.1 30.5-.1 45.8z" clip-path="url(#SVGID_2044_)" fill="#83beec"/></g><path d="M2148.9 6.4c.1.3.3.6.4.8l.1.2c.2.3.4 1 .7 1.7 1.1 3 1.9 4.8 3.3 4.8.3 0 .8-.1 1.3-.8.8-1.3 1.4-3 2-4.6.1-.4.2-.7.4-1.1V32c-.1-.5-.2-1.1-.3-1.6-.2-1.1-.5-2.3-.7-4l-.1-.8c-.3-1.7-.6-3.5-1-5.1-.1-.5-.4-1.6-1.4-1.6-1 0-1.3 1.1-1.4 1.5-.2.7-.4 1.5-.5 2.3-.1.3-.1.7-.2 1-.1.4-.6 4-.7 5-.2 1.2-.3 2.4-.4 3.5-.2 1.4-.3 2.8-.5 4.2-.3 2.4-.5 4.6-.9 6.6-.5-2.7-.9-5.5-1.3-8.2-.2-1.7-.5-3.4-.8-5.1l-.1-.4c-.3-1.9-.6-3.8-1.2-5.4-.3-.9-.9-1-1.2-1-1.2 0-1.5 1.5-1.9 3.1 0 .1-.1.3-.1.4-.5 2.3-1 4.7-1.4 7-.3 1.8-.6 3.6-1 5.4-.1.4-.2.8-.2 1-.2-.6-.4-1.4-.5-2l-.2-.8c-.2-.7-.3-1.4-.5-2.1-.4-1.8-.9-3.7-1.4-5.5-.3-1-.6-1.6-.9-2.1l-.1-.1-.1-.1c-.2-.2-.5-.3-.8-.3-1.3 0-1.9 1.6-3 6.3-.3 1.2-.6 2.3-.8 2.8-.1.3-.2.5-.3.8-.2.6-.5 1.4-.7 1.9-.6-.9-1-1.8-1.4-2.5-1-1.9-1.7-3.2-3.4-3.2-.7 0-1.5.3-2.6.9-1.2.4-4.1 2-4.7 2.5-.4.3-.9.5-1 .5h-.3c-.3 0-.4 0-1.1-1-.1-.2-.3-.4-.5-.6-.4-.6-.9-1.9-1.3-3.1-.3-.9-.6-1.8-1-2.5v-4c.7 1.6 1.5 3 2.5 4 .3.3.7.5 1 .5.3 0 1-.1 1.4-1.1l.1-.3c.3-.6.5-1.3.8-2.1.3-1 .6-2.2.9-3.2.4-1.7.9-3.5 1.5-4.9.4.8.8 1.7 1.2 2.6.6 1.4 1.2 2.8 1.9 3.9.5.8 1 1 1.4 1 1.4 0 1.9-1.8 2.5-3.8.3-1 .6-2 .8-3 .4-1.7.9-3.4 1.5-4.9.4.8 1 2.1 1.3 3 1.1 2.7 1.7 4.1 2.7 4.5h.4c1.4 0 2-1.7 3.4-6.9.4-1.7 1-3.7 1.4-4.7.2.3.3.6.4.8l.1.3c.2.3.4 1 .7 1.7 1.1 3 1.9 4.8 3.3 4.8.4 0 .8-.2 1.1-.6l.1-.1V17c.9-1.7 1.4-3.9 2-6 .2-1.5.7-3.2 1.3-4.6m9-5.4c-.5 1.9-1.1 3.9-1.7 5.7-.8 2.1-1.4 4.4-2.4 5.9-.1.2-.3.3-.4.3-1 0-2.4-4.7-3.1-6-.4-.9-.9-2.1-1.5-2.1-.2 0-.4.2-.6.7-1.5 3.3-2.1 8.2-3.6 11.2-.1.1-.2.2-.3.2-1 0-2.4-4.6-3.1-5.9-.4-.8-.9-2.1-1.5-2.1-.2 0-.3.1-.5.4-1.3 1.9-2.9 11.8-4.2 11.8h-.1c-1.3-.5-3.2-8.1-4.5-8.1-.2 0-.4.2-.6.7-1 2.4-1.7 5.6-2.5 8.4-.4 1.2-.9 3.1-1.5 3.1-.2 0-.4-.1-.6-.5-1.2-1.9-2-4.6-3.1-6.7-.2-.5-.6-.9-.9-.9-.2 0-.4.2-.6.6-1.1 2.5-1.8 5.9-2.7 8.8-.3.8-.6 1.6-.9 2.3-.1.3-.3.5-.5.5-.1 0-.2-.1-.3-.2-1.7-1.7-2.9-5.1-4.2-7.9V30c.8 1.5 1.6 4.6 2.5 5.9 1.1 1.4 1.3 2 2.4 2h.4c.4 0 1.1-.5 1.4-.7.8-.5 3.7-2.2 4.5-2.4 1-.6 1.7-.8 2.2-.8 1.5 0 1.9 2 4 5.3.3.5.6.7.9.7.8 0 1.3-1.9 1.9-3.5.6-1.5 1.9-8.4 2.9-8.4.1 0 .1 0 .2.1.3.4.6 1.1.8 1.8.7 2.5 1.2 5 1.9 7.6.6 2.2 1.1 4.7 1.8 4.7.4 0 .7-.8 1.2-3 .8-4.1 1.5-8.3 2.4-12.3.2-.8.6-2.7 1-2.7.1 0 .2.1.3.4.6 1.6.9 3.7 1.2 5.6.7 4.5 1.3 9.1 2.1 13.5.3 1.5.6 2.8 1 2.8.2 0 .5-.5.7-1.9.5-2.5.8-5.2 1.1-7.8.4-2.5.6-5.2 1-7.7.1-1 .6-4.5.7-4.9.2-1.1.3-2.2.6-3.2.2-.5.3-.8.4-.8.2 0 .3.3.4.9.5 1.8.8 3.8 1.1 5.8.6 3.9 1.2 5.2 1.6 9.2.2 1.9.5 3.7.7 5.6.2 1.9.5 3.7.6 5.5h.1c.1-15.6-.1-30.9-.1-46.3.1.1 0 0 0 0" clip-path="url(#SVGID_2042_)" fill="#83beec"/></g></g><defs><path id="SVGID_2045_" d="M1247 0h48v48h-48z"/></defs><clipPath id="SVGID_2046_"><use xlink:href="#SVGID_2045_" overflow="visible"/></clipPath><g clip-path="url(#SVGID_2046_)"><defs><path id="SVGID_2047_" d="M1247 0h48v48h-48z"/></defs><clipPath id="SVGID_2048_"><use xlink:href="#SVGID_2047_" overflow="visible"/></clipPath><g clip-path="url(#SVGID_2048_)"><defs><path id="SVGID_2049_" d="M1247 0h48v48h-48z"/></defs><clipPath id="SVGID_2050_"><use xlink:href="#SVGID_2049_" overflow="visible"/></clipPath><g opacity=".9" clip-path="url(#SVGID_2050_)"><defs><path id="SVGID_2051_" d="M1247.7 18.1h46.4v13.1h-46.4z"/></defs><clipPath id="SVGID_2052_"><use xlink:href="#SVGID_2051_" overflow="visible"/></clipPath><path d="M1248 18.5s5.9 5.6 20.9 9.5c15 3.9 25.1 2.5 25.1 2.5" clip-path="url(#SVGID_2052_)" fill="none" stroke="#83beec" stroke-miterlimit="10"/></g><g clip-path="url(#SVGID_2050_)"><text transform="matrix(1.0037 0 0 1 1278.564 19.027)" class="st2930 st2931 st2932">Σ</text></g></g></g><path class="st2" d="M0 0h16v16H0z"/><path class="st3135" d="M8 1c3.9 0 7 3.1 7 7s-3.1 7-7 7-7-3.1-7-7 3.1-7 7-7m0-1C3.6 0 0 3.6 0 8s3.6 8 8 8 8-3.6 8-8-3.6-8-8-8z"/><path class="st3136" d="M1 15L15 1"/><path class="st2" d="M16 0h16v16H16z"/><path class="st3135" d="M25 8.5V10h-3V7h3v1.5zM25 6h-3c-.6 0-1 .4-1 1v3c0 .6.4 1 1 1h3c.6 0 1-.4 1-1V7c0-.6-.4-1-1-1zm-9 2h4v1h-4zm11 0h4v1h-4zm-4-7h1v4h-1zm0 11h1v4h-1z"/><path class="st2" d="M32 0h16v16H32z"/><path class="st3135" d="M41 10v3h-3v-3h3m0-1h-3c-.6 0-1 .4-1 1v3c0 .6.4 1 1 1h3c.6 0 1-.4 1-1v-3c0-.6-.4-1-1-1zm-9-5h4v1h-4zm11 0h4v1h-4zm-4-4h1v2h-1zm0 14h1v2h-1zm2-11v3h-3V3h3m0-1h-3c-.6 0-1 .4-1 1v3c0 .6.4 1 1 1h3c.6 0 1-.4 1-1V3c0-.6-.4-1-1-1zm-2 5h1v2h-1zm-7 4h4v1h-4zm11 0h4v1h-4z"/><path class="st2" d="M48 0h16v16H48z"/><path class="st3135" d="M54 8h10v1H54z"/><path class="st3135" d="M56 6h1v10h-1zm-7.3 8l-.7-.6L52.3 9l.7.6z"/><path class="st3135" d="M52.3 14L48 9.6l.7-.6 4.3 4.4zm6.8-11L57 .7l.7-.7 2.2 2.3z"/><path class="st3135" d="M59.9 3l-.8-.7L61.3 0l.7.7z"/><path class="st3135" d="M60 5h-1V2h1zm2 2h1v1h-1zm-2 0h1v1h-1zm-2 0h1v1h-1zm-3 3h1v1h-1zm0 2h1v1h-1zm0 2h1v1h-1z"/><path class="st2" d="M64 0h16v16H64z"/><path class="st3135" d="M73.7 16l-.7-.6 4.3-4.4.7.6z"/><path class="st3135" d="M77.3 16L73 11.6l.7-.6 4.3 4.4zM66.1 5L64 2.7l.7-.7 2.2 2.3z"/><path class="st3135" d="M66.9 5l-.8-.7L68.3 2l.7.7z"/><path class="st3135" d="M67 7h-1V4h1zm5-7h1v10h-1z"/><path class="st3135" d="M70 7h10v1H70zm1-6h1v1h-1zm0 2h1v1h-1zm0 2h1v1h-1zm3 3h1v1h-1zm2 0h1v1h-1zm2 0h1v1h-1z"/><path class="st2" d="M16 16h16v16H16z"/><path class="st3135" d="M31 27v4H17v-4h14m1-1H16v6h16v-6z"/><g class="st107"><path class="st3135" d="M31 17v14H17V17h14m1-1H16v16h16V16z"/></g><path class="st3136" d="M24 19v7"/><path class="st3135" d="M19.9 22.6l.7-.7 3.4 3.6 3.4-3.6.7.7L24 27zM18 28h2v2h-2zm3 0h2v2h-2zm3 0h2v2h-2zm4 0h2v2h-2z"/><path class="st2" d="M0 16h16v16H0z"/><path class="st3135" d="M15 19v6H5.7l-.3.2L3 26.9V25H1v-6h14m1-1H0v8h2v3l4-3h10v-8z"/><path class="st3135" d="M2 21h2v2H2zm3 0h2v2H5zm3 0h2v2H8zm4 0h2v2h-2z"/><path class="st2" d="M48 16h16v16H48z"/><path class="st3135" d="M63 17v14h-4V17h4m1-1h-6v16h6V16z"/><g class="st107"><path class="st3135" d="M63 17v14H49V17h14m1-1H48v16h16V16z"/></g><path class="st3136" d="M51 23.5h7"/><path class="st3135" d="M54.6 27.6l-.7-.7 3.6-3.4-3.6-3.3.7-.8 4.4 4.1zM60 18h2v2h-2zm0 3h2v2h-2zm0 3h2v2h-2zm0 4h2v2h-2z"/><path class="st2" d="M64 16h16v16H64z"/><path class="st3135" d="M69 17v14h-4V17h4m1-1h-6v16h6V16z"/><g class="st107"><path class="st3135" d="M79 17v14H65V17h14m1-1H64v16h16V16z"/></g><path class="st3136" d="M77 24h-7"/><path class="st3135" d="M73.4 19.9l.7.7-3.6 3.4 3.6 3.4-.7.7L69 24zM66 18h2v2h-2zm0 3h2v2h-2zm0 3h2v2h-2zm0 4h2v2h-2z"/><path class="st2" d="M32 16h16v16H32z"/><path class="st3135" d="M47 17v4H33v-4h14m1-1H32v6h16v-6z"/><g class="st107"><path class="st3135" d="M47 17v14H33V17h14m1-1H32v16h16V16z"/></g><path class="st3136" d="M40 29v-7"/><path class="st3135" d="M44.1 25.4l-.7.7-3.4-3.6-3.4 3.6-.7-.7L40 21zM34 18h2v2h-2zm3 0h2v2h-2zm3 0h2v2h-2zm4 0h2v2h-2z"/></g></svg>