<?xml version="1.0" encoding="utf-8"?>
<!-- Generator: Adobe Illustrator 15.0.0, SVG Export Plug-In . SVG Version: 6.00 Build 0)  -->
<!DOCTYPE svg PUBLIC "-//W3C//DTD SVG 1.1//EN" "http://www.w3.org/Graphics/SVG/1.1/DTD/svg11.dtd">
<svg version="1.1" id="Calque_1" xmlns="http://www.w3.org/2000/svg" xmlns:xlink="http://www.w3.org/1999/xlink" x="0px" y="0px"
	 width="92px" height="56px" viewBox="0 0 92 56" enable-background="new 0 0 92 56" xml:space="preserve">
<g>
	<path fill="#1B70ED" d="M34.326,34.75c-3.728,0-6.75,3.021-6.75,6.75s3.022,6.75,6.75,6.75c3.729,0,6.75-3.021,6.75-6.75v-6.75
		H34.326z"/>
	<path fill="#629CEF" d="M51.509,24.833c-1.136-2.132-3.379-3.583-5.962-3.583h-8.123h-3.098c-3.728,0-6.75,3.022-6.75,6.75v6.75
		v6.75c0-3.729,3.022-6.75,6.75-6.75h6.75h4.471c0.776,0,1.521-0.133,2.214-0.373c1.616-0.563,2.953-1.719,3.748-3.21
		c0.503-0.944,0.788-2.022,0.788-3.167C52.297,26.855,52.012,25.777,51.509,24.833z"/>
	<path fill="#1B70ED" d="M52.9,7.895c3.06,0.642,5.355,3.355,5.355,6.605c0,3.728-3.021,6.75-6.749,6.75h-5.962
		c2.583,0,4.826,1.451,5.962,3.583c0.503,0.944,0.788,2.022,0.788,3.167c0,1.145-0.285,2.223-0.788,3.167
		c-0.795,1.491-2.132,2.647-3.748,3.21c-0.692,0.24-1.438,0.373-2.214,0.373h5.377c0.196,0,0.393-0.005,0.585-0.014
		c7.185-0.307,12.915-6.229,12.915-13.486C64.424,14.465,59.419,8.851,52.9,7.895z"/>
	<path fill="#4285F4" d="M52.9,7.895c-0.457-0.067-0.922-0.111-1.394-0.131h-0.001H51.1h-0.76H34.733h-0.407V7.75
		c-3.728,0-6.75,3.022-6.75,6.75V28c0-3.728,3.022-6.75,6.75-6.75h3.098h8.123h5.962c3.728,0,6.749-3.022,6.749-6.75
		C58.258,11.25,55.96,8.536,52.9,7.895z"/>
</g>
</svg>
