<?xml version="1.0" encoding="utf-8"?>
<!-- Generator: Adobe Illustrator 15.0.0, SVG Export Plug-In . SVG Version: 6.00 Build 0)  -->
<!DOCTYPE svg PUBLIC "-//W3C//DTD SVG 1.1//EN" "http://www.w3.org/Graphics/SVG/1.1/DTD/svg11.dtd">
<svg version="1.1" id="Calque_1" xmlns="http://www.w3.org/2000/svg" xmlns:xlink="http://www.w3.org/1999/xlink" x="0px" y="0px"
	 width="216px" height="18px" viewBox="-30 -2.5 216 18" enable-background="new -30 -2.5 216 18" xml:space="preserve">
<path fill="#EEEBE8" d="M-12,11.5c0,2.2-1.8,4-4,4h-10c-2.2,0-4-1.8-4-4v-10c0-2.2,1.8-4,4-4h10c2.2,0,4,1.8,4,4V11.5z"/>
<path fill="#EEEBE8" d="M6,11.5c0,2.2-1.8,4-4,4H-8c-2.2,0-4-1.8-4-4v-10c0-2.2,1.8-4,4-4H2c2.2,0,4,1.8,4,4V11.5z"/>
<path opacity="0.25" fill="#2D2D2D" enable-background="new    " d="M24,11.5c0,2.2-1.8,4-4,4H10c-2.2,0-4-1.8-4-4v-10
	c0-2.2,1.8-4,4-4h10c2.2,0,4,1.8,4,4V11.5z"/>
<path fill="#EEEBE8" d="M42,11.5c0,2.2-1.8,4-4,4H28c-2.2,0-4-1.8-4-4v-10c0-2.2,1.8-4,4-4h10c2.2,0,4,1.8,4,4V11.5z"/>
<path fill="#C0C0C0" d="M60,11.5c0,2.2-1.8,4-4,4H46c-2.2,0-4-1.8-4-4v-10c0-2.2,1.8-4,4-4h10c2.2,0,4,1.8,4,4V11.5z"/>
<path fill="#C0C0C0" d="M78,11.5c0,2.2-1.8,4-4,4H64c-2.2,0-4-1.8-4-4v-10c0-2.2,1.8-4,4-4h10c2.2,0,4,1.8,4,4V11.5z"/>
<path opacity="0.25" fill="#2D2D2D" enable-background="new    " d="M96,11.5c0,2.2-1.8,4-4,4H82c-2.2,0-4-1.8-4-4v-10
	c0-2.2,1.8-4,4-4h10c2.2,0,4,1.8,4,4V11.5z"/>
<path fill="#C0C0C0" d="M114,11.5c0,2.2-1.8,4-4,4h-10c-2.2,0-4-1.8-4-4v-10c0-2.2,1.8-4,4-4h10c2.2,0,4,1.8,4,4V11.5z"/>
<path fill="#EEEBE8" d="M132,11.5c0,2.2-1.8,4-4,4h-10c-2.2,0-4-1.8-4-4v-10c0-2.2,1.8-4,4-4h10c2.2,0,4,1.8,4,4V11.5z"/>
<path fill="#EEEBE8" d="M150,11.5c0,2.2-1.8,4-4,4h-10c-2.2,0-4-1.8-4-4v-10c0-2.2,1.8-4,4-4h10c2.2,0,4,1.8,4,4V11.5z"/>
<path opacity="0.25" fill="#2D2D2D" enable-background="new    " d="M168,11.5c0,2.2-1.8,4-4,4h-10c-2.2,0-4-1.8-4-4v-10
	c0-2.2,1.8-4,4-4h10c2.2,0,4,1.8,4,4V11.5z"/>
<path fill="#EEEBE8" d="M186,11.5c0,2.2-1.8,4-4,4h-10c-2.2,0-4-1.8-4-4v-10c0-2.2,1.8-4,4-4h10c2.2,0,4,1.8,4,4V11.5z"/>
<path fill="#DFDFDF" d="M58,11.5c0,1.1-0.9,2-2,2H46c-1.1,0-2-0.9-2-2v-10c0-1.1,0.9-2,2-2h10c1.1,0,2,0.9,2,2V11.5z"/>
<path fill="#DFDFDF" d="M76,11.5c0,1.1-0.9,2-2,2H64c-1.1,0-2-0.9-2-2v-10c0-1.1,0.9-2,2-2h10c1.1,0,2,0.9,2,2V11.5z"/>
<path fill="#DFDFDF" d="M112,11.5c0,1.1-0.9,2-2,2h-10c-1.1,0-2-0.9-2-2v-10c0-1.1,0.9-2,2-2h10c1.1,0,2,0.9,2,2V11.5z"/>
<g id="check">
	<polygon fill="#808090" points="-23.267,9.318 -26.24,6.282 -27.231,7.293 -23.267,11.348 -14.769,2.667 -15.76,1.655 	"/>
</g>
<g id="check_1_">
	<polygon fill="#808090" points="-5.267,9.318 -8.24,6.282 -9.231,7.293 -5.267,11.348 3.231,2.667 2.24,1.655 	"/>
</g>
<g id="check_6_">
	<polygon fill="#808090" points="120.733,9.318 117.76,6.282 116.771,7.293 120.733,11.348 129.229,2.667 128.24,1.655 	"/>
</g>
<g id="check_7_">
	<polygon fill="#808090" points="138.733,9.318 135.76,6.282 134.771,7.293 138.733,11.348 147.229,2.667 146.24,1.655 	"/>
</g>
<g id="check_8_">
	<polygon fill="#808090" points="174.733,9.318 171.76,6.282 170.771,7.293 174.733,11.348 183.229,2.667 182.24,1.655 	"/>
</g>
<g id="check_2_">
	<polygon fill="#FFFFFF" points="12.733,9.318 9.76,6.282 8.769,7.293 12.733,11.348 21.231,2.667 20.24,1.655 	"/>
</g>
<g id="check_5_">
	<polygon fill="#FFFFFF" points="156.733,9.318 153.76,6.282 152.771,7.293 156.733,11.348 165.229,2.667 164.24,1.655 	"/>
</g>
<g id="check_3_">
	<polygon fill="#808090" points="30.733,9.318 27.76,6.282 26.769,7.293 30.733,11.348 39.231,2.667 38.24,1.655 	"/>
</g>
</svg>
