<?xml version="1.0" encoding="utf-8"?>
<!-- Generator: Adobe Illustrator 15.0.0, SVG Export Plug-In . SVG Version: 6.00 Build 0)  -->
<!DOCTYPE svg PUBLIC "-//W3C//DTD SVG 1.1//EN" "http://www.w3.org/Graphics/SVG/1.1/DTD/svg11.dtd">
<svg version="1.1" id="Calque_1" xmlns="http://www.w3.org/2000/svg" xmlns:xlink="http://www.w3.org/1999/xlink" x="0px" y="0px"
	 width="80px" height="80px" viewBox="0 0 80 80" enable-background="new 0 0 80 80" xml:space="preserve">
<g>
	<path fill="#1B70ED" d="M22.562,50.083c-5.569,0-10.083,4.515-10.083,10.084c0,5.567,4.514,10.083,10.083,10.083
		s10.083-4.516,10.083-10.083V50.083H22.562z"/>
	<path fill="#629CEF" d="M48.229,35.269c-1.693-3.184-5.047-5.352-8.903-5.352H27.188h-4.626c-5.569,0-10.083,4.515-10.083,10.083
		v10.083v10.084c0-5.569,4.514-10.084,10.083-10.084h10.083h6.678c1.159,0,2.271-0.198,3.308-0.558
		c2.414-0.838,4.411-2.566,5.598-4.795c0.752-1.41,1.181-3.021,1.181-4.73C49.407,38.29,48.979,36.68,48.229,35.269z"/>
	<path fill="#1B70ED" d="M50.309,9.966c4.57,0.958,8.004,5.012,8.004,9.868c0,5.568-4.516,10.083-10.084,10.083h-8.903
		c3.856,0,7.21,2.168,8.903,5.352C48.98,36.68,49.409,38.29,49.409,40s-0.429,3.32-1.181,4.73c-1.187,2.229-3.184,3.957-5.598,4.795
		c-1.037,0.357-2.148,0.558-3.308,0.558h8.032c0.293,0,0.584-0.008,0.873-0.021c10.73-0.457,19.293-9.303,19.293-20.146
		C67.521,19.782,60.046,11.394,50.309,9.966z"/>
	<path fill="#4285F4" d="M50.309,9.966c-0.684-0.1-1.377-0.166-2.08-0.196l0,0H47.62h-1.138H23.17h-0.608V9.75
		c-5.569,0-10.083,4.515-10.083,10.083V40c0-5.568,4.514-10.083,10.083-10.083h4.626h12.135h8.905
		c5.566,0,10.082-4.515,10.082-10.083C58.313,14.978,54.879,10.924,50.309,9.966z"/>
</g>
</svg>
