<?xml version="1.0" encoding="utf-8"?>
<!-- Generator: Adobe Illustrator 15.0.0, SVG Export Plug-In . SVG Version: 6.00 Build 0)  -->
<!DOCTYPE svg PUBLIC "-//W3C//DTD SVG 1.1//EN" "http://www.w3.org/Graphics/SVG/1.1/DTD/svg11.dtd">
<svg version="1.1" id="Calque_1" xmlns="http://www.w3.org/2000/svg" xmlns:xlink="http://www.w3.org/1999/xlink" x="0px" y="0px"
	 width="80px" height="80px" viewBox="0 0 80 80" enable-background="new 0 0 80 80" xml:space="preserve">
<g>
	<path fill="#1B70ED" d="M23.426,49.583c-5.292,0-9.583,4.291-9.583,9.584s4.291,9.583,9.583,9.583c5.293,0,9.584-4.29,9.584-9.583
		v-9.584H23.426z"/>
	<path fill="#629CEF" d="M47.82,35.503c-1.611-3.026-4.797-5.087-8.464-5.087H27.823h-4.397c-5.292,0-9.583,4.291-9.583,9.583v9.583
		v9.584c0-5.293,4.291-9.584,9.583-9.584h9.584h6.347c1.102,0,2.159-0.188,3.144-0.53c2.295-0.797,4.192-2.438,5.319-4.556
		c0.715-1.342,1.121-2.872,1.121-4.497C48.939,38.375,48.534,36.844,47.82,35.503z"/>
	<path fill="#1B70ED" d="M49.797,11.455c4.344,0.911,7.605,4.763,7.605,9.378c0,5.292-4.289,9.583-9.582,9.583h-8.464
		c3.667,0,6.853,2.061,8.464,5.087c0.714,1.341,1.119,2.871,1.119,4.497c0,1.625-0.405,3.154-1.119,4.497
		c-1.127,2.116-3.025,3.759-5.32,4.556c-0.984,0.344-2.042,0.53-3.144,0.53h7.634c0.277,0,0.555-0.007,0.83-0.019
		c10.199-0.437,18.337-8.84,18.337-19.148C66.157,20.785,59.052,12.813,49.797,11.455z"/>
	<path fill="#4285F4" d="M49.797,11.455c-0.648-0.095-1.309-0.158-1.977-0.186h-0.002h-0.576h-1.08H24.005h-0.579V11.25
		c-5.292,0-9.583,4.291-9.583,9.583V40c0-5.293,4.291-9.583,9.583-9.583h4.397h11.533h8.464c5.293,0,9.582-4.291,9.582-9.583
		C57.402,16.218,54.141,12.366,49.797,11.455z"/>
</g>
</svg>
