<?xml version="1.0" encoding="utf-8"?>
<!-- Generator: Adobe Illustrator 15.0.2, SVG Export Plug-In . SVG Version: 6.00 Build 0)  -->
<!DOCTYPE svg PUBLIC "-//W3C//DTD SVG 1.1//EN" "http://www.w3.org/Graphics/SVG/1.1/DTD/svg11.dtd">
<svg version="1.1" id="Calque_1" xmlns="http://www.w3.org/2000/svg" xmlns:xlink="http://www.w3.org/1999/xlink" x="0px" y="0px"
	 width="22px" height="18px" viewBox="0 0 22 18" enable-background="new 0 0 22 18" xml:space="preserve">
<g id="visibility" opacity="0.75">
	<path fill="#808080" d="M8,4C4.364,4,1.236,6.273,0,9.5C1.236,12.727,4.364,15,8,15s6.764-2.273,8-5.5C14.764,6.273,11.636,4,8,4z
		 M8,13.166c-2.036,0-3.636-1.611-3.636-3.666c0-2.053,1.6-3.667,3.636-3.667c2.037,0,3.636,1.614,3.636,3.667
		C11.636,11.555,10.037,13.166,8,13.166z M8,7.301c-1.236,0-2.182,0.953-2.182,2.199S6.764,11.699,8,11.699s2.182-0.953,2.182-2.199
		S9.236,7.301,8,7.301z"/>
</g>
</svg>
