<?xml version="1.0" encoding="utf-8"?>
<!-- Generator: Adobe Illustrator 15.0.2, SVG Export Plug-In . SVG Version: 6.00 Build 0)  -->
<!DOCTYPE svg PUBLIC "-//W3C//DTD SVG 1.1//EN" "http://www.w3.org/Graphics/SVG/1.1/DTD/svg11.dtd">
<svg version="1.1" id="Calque_1" xmlns="http://www.w3.org/2000/svg" xmlns:xlink="http://www.w3.org/1999/xlink" x="0px" y="0px"
	 width="24px" height="24px" viewBox="0 0 24 24" enable-background="new 0 0 24 24" xml:space="preserve">
<path fill="#808090" d="M19.988,9.941c0-2.675-1.814-5.099-4.521-5.767C14.99,4.056,14.509,4,14.039,4
	c-2.677-0.002-5.098,1.816-5.771,4.525C8.151,9.001,8.095,9.479,8.095,9.95c0,1.063,0.296,2.079,0.811,2.969l-4.454,4.496
	c-0.591,0.595-0.585,1.558,0.009,2.146C4.757,19.854,5.144,20,5.529,20c0.39,0,0.781-0.15,1.077-0.449l4.443-4.484
	c0.482,0.281,1,0.519,1.568,0.656c0.478,0.116,0.953,0.172,1.426,0.172c2.675,0,5.102-1.813,5.771-4.521l-0.883-0.219l0.883,0.218
	C19.931,10.893,19.988,10.414,19.988,9.941z M18.047,10.934c-0.461,1.882-2.151,3.14-4.004,3.14c-0.326,0-0.658-0.038-0.989-0.119
	c-0.5-0.123-0.951-0.337-1.35-0.613c-0.42-0.289-0.772-0.656-1.055-1.071c-0.461-0.675-0.732-1.477-0.732-2.319
	c0-0.327,0.038-0.657,0.12-0.987c0.464-1.882,2.152-3.143,4.002-3.143c0.324,0,0.654,0.038,0.988,0.121
	c1.881,0.461,3.139,2.15,3.139,4C18.166,10.268,18.128,10.599,18.047,10.934z"/>
</svg>
