<?xml version="1.0" encoding="utf-8"?>
<!-- Generator: Adobe Illustrator 15.0.0, SVG Export Plug-In . SVG Version: 6.00 Build 0)  -->
<!DOCTYPE svg PUBLIC "-//W3C//DTD SVG 1.1//EN" "http://www.w3.org/Graphics/SVG/1.1/DTD/svg11.dtd">
<svg version="1.1" id="Calque_1" xmlns="http://www.w3.org/2000/svg" xmlns:xlink="http://www.w3.org/1999/xlink" x="0px" y="0px"
	 width="205px" height="205px" viewBox="0 0 205 205" enable-background="new 0 0 205 205" xml:space="preserve">
<g>
	<path fill="#1B70ED" d="M64.309,124.583c-12.197,0-22.083,9.888-22.083,22.084s9.887,22.083,22.083,22.083
		c12.196,0,22.083-9.887,22.083-22.083v-22.084H64.309L64.309,124.583z"/>
	<path fill="#629CEF" d="M120.521,92.138c-3.713-6.973-11.054-11.722-19.502-11.722H74.441H64.309
		c-12.197,0-22.083,9.887-22.083,22.083v22.083v22.084c0-12.195,9.887-22.084,22.083-22.084h22.083h14.626
		c2.539,0,4.973-0.434,7.243-1.223c5.288-1.836,9.662-5.621,12.261-10.498c1.646-3.092,2.58-6.617,2.58-10.362
		S122.166,95.229,120.521,92.138z"/>
	<path fill="#1B70ED" d="M125.074,36.723c10.011,2.099,17.529,10.976,17.529,21.611c0,12.196-9.889,22.083-22.084,22.083h-19.501
		c8.451,0,15.791,4.749,19.501,11.722c1.646,3.09,2.582,6.616,2.582,10.362c0,3.745-0.938,7.271-2.582,10.362
		c-2.599,4.878-6.973,8.662-12.261,10.498c-2.27,0.789-4.702,1.223-7.243,1.223h17.589c0.643,0,1.277-0.018,1.912-0.043
		c23.504-1.002,42.254-20.371,42.254-44.124C162.775,58.221,146.4,39.851,125.074,36.723z"/>
	<path fill="#4285F4" d="M125.074,36.723c-1.495-0.22-3.016-0.363-4.555-0.429h-0.002h-1.33h-2.489H65.642h-1.333V36.25
		c-12.197,0-22.083,9.887-22.083,22.083V102.5c0-12.196,9.887-22.083,22.083-22.083h10.133h26.577h19.502
		c12.194,0,22.082-9.887,22.082-22.083C142.604,47.698,135.085,38.821,125.074,36.723z"/>
</g>
</svg>
